# Blender 4.2.1 LTS
# www.blender.org
o Extra
v 0.000000 -0.287558 0.588769
v 0.280436 -0.287558 0.588769
v 0.000000 -0.280718 0.624608
v 0.281639 -0.280718 0.624608
v 0.000000 -0.274546 0.629809
v 0.281639 -0.274546 0.629809
v 0.000000 -0.167875 0.634335
v 0.298845 -0.167875 0.634335
v 0.000000 -0.104699 0.608333
v 0.309337 -0.104699 0.608333
v 0.000000 -0.099207 0.580030
v 0.310687 -0.099207 0.579670
v 0.298845 -0.167875 0.579627
v 0.281639 -0.274546 0.579627
v 0.000000 -0.278192 0.628138
v 0.281639 -0.278201 0.628131
v -0.280436 -0.287558 0.588769
v -0.281639 -0.280718 0.624608
v -0.281639 -0.274546 0.629809
v -0.298845 -0.167875 0.634335
v -0.309337 -0.104699 0.608333
v -0.310687 -0.099207 0.579670
v -0.298845 -0.167875 0.579627
v -0.281639 -0.274546 0.579627
v -0.281639 -0.278201 0.628131
vn -0.0000 -0.9823 0.1875
vn -0.0000 -0.9192 0.3939
vn -0.0000 -0.6369 0.7710
vn -0.0000 -0.6363 0.7714
vn -0.0000 -0.2250 0.9744
vn -0.0000 0.1732 0.9849
vn -0.0000 -0.2339 0.9723
vn -0.0000 0.1947 0.9809
vn -0.0000 0.3806 0.9247
vn 0.0002 0.9821 0.1883
vn -0.0000 0.9817 0.1904
vn -0.0000 0.9817 0.1905
vn 0.9912 -0.1321 -0.0046
vn 1.0000 -0.0000 -0.0000
vn 0.9999 -0.0123 -0.0017
vn 0.9867 -0.1624 0.0019
vn 0.9956 -0.0936 -0.0000
vn 0.9858 -0.1677 0.0087
vn 0.9869 -0.1612 -0.0000
vn 0.9947 -0.1018 -0.0140
vn -0.0000 -0.9184 0.3957
vn -0.0002 0.9821 0.1883
vn -0.9912 -0.1321 -0.0046
vn -0.9999 -0.0123 -0.0017
vn -1.0000 -0.0000 -0.0000
vn -0.9867 -0.1624 0.0019
vn -0.9956 -0.0936 -0.0000
vn -0.9869 -0.1612 -0.0000
vn -0.9858 -0.1677 0.0087
vn -0.9947 -0.1018 -0.0140
vn 0.0002 0.9821 0.1882
vn 0.9854 -0.1699 0.0138
vn -0.0002 0.9821 0.1882
vn -0.9854 -0.1699 0.0138
vt 0.392400 0.562759
vt 0.530978 0.553291
vt 0.530934 0.571187
vt 0.402866 0.545149
vt 0.530984 0.551117
vt 0.402516 0.543206
vt 0.531124 0.494013
vt 0.530988 0.549205
vt 0.392150 0.499058
vt 0.531213 0.457781
vt 0.386250 0.470638
vt 0.531255 0.440802
vt 0.382871 0.560426
vt 0.402586 0.547112
vt 0.359745 0.498503
vt 0.669508 0.563440
vt 0.659129 0.545779
vt 0.659400 0.547743
vt 0.659489 0.543837
vt 0.670072 0.499741
vt 0.676111 0.471350
vt 0.679049 0.561154
vt 0.702479 0.499346
vt 0.376486 0.457564
vt 0.685939 0.458324
s 1
f 2/1/1 3/2/2 1/3/1
f 3/2/2 16/4/3 15/5/4
f 6/6/5 7/7/6 5/8/7
f 8/9/8 9/10/9 7/7/6
f 10/11/10 11/12/11 9/10/12
f 14/13/13 16/4/14 4/14/15
f 13/15/16 6/6/17 14/13/13
f 13/15/16 10/11/18 8/9/19
f 15/5/4 6/6/5 5/8/7
f 16/4/14 14/13/13 6/6/17
f 4/14/15 2/1/20 14/13/13
f 3/2/2 17/16/1 1/3/1
f 3/2/2 25/17/3 18/18/21
f 7/7/6 19/19/5 5/8/7
f 9/10/9 20/20/8 7/7/6
f 11/12/11 21/21/22 9/10/12
f 24/22/23 18/18/24 25/17/25
f 23/23/26 19/19/27 20/20/28
f 21/21/29 23/23/26 20/20/28
f 15/5/4 19/19/5 25/17/3
f 25/17/25 19/19/27 24/22/23
f 18/18/24 24/22/23 17/16/30
f 2/1/1 4/14/21 3/2/2
f 3/2/2 4/14/21 16/4/3
f 6/6/5 8/9/8 7/7/6
f 8/9/8 10/11/9 9/10/9
f 10/11/10 12/24/31 11/12/11
f 13/15/16 8/9/19 6/6/17
f 13/15/16 12/24/32 10/11/18
f 15/5/4 16/4/3 6/6/5
f 3/2/2 18/18/21 17/16/1
f 3/2/2 15/5/4 25/17/3
f 7/7/6 20/20/8 19/19/5
f 9/10/9 21/21/9 20/20/8
f 11/12/11 22/25/33 21/21/22
f 23/23/26 24/22/23 19/19/27
f 21/21/29 22/25/34 23/23/26
f 15/5/4 5/8/7 19/19/5
