# Blender 4.2.1 LTS
# www.blender.org
o Right_Ring
v 0.270000 -0.390479 0.047735
v 0.307401 -0.390479 0.040295
v 0.339109 -0.390479 0.019109
v 0.360295 -0.390479 -0.012599
v 0.367735 -0.390479 -0.050000
v 0.360295 -0.390479 -0.087401
v 0.339109 -0.390479 -0.119109
v 0.307401 -0.390479 -0.140295
v 0.270000 -0.390479 -0.147735
v 0.232599 -0.390479 -0.140295
v 0.200891 -0.390479 -0.119109
v 0.179705 -0.390479 -0.087401
v 0.172265 -0.390479 -0.050000
v 0.179705 -0.390479 -0.012599
v 0.200891 -0.390479 0.019109
v 0.232599 -0.390479 0.040295
v 0.270000 -0.399892 0.059866
v 0.312044 -0.399892 0.051503
v 0.347687 -0.399892 0.027687
v 0.371503 -0.399892 -0.007956
v 0.379866 -0.399892 -0.050000
v 0.371503 -0.399892 -0.092044
v 0.347687 -0.399892 -0.127687
v 0.312044 -0.399892 -0.151503
v 0.270000 -0.399892 -0.159866
v 0.227956 -0.399892 -0.151503
v 0.192313 -0.399892 -0.127687
v 0.168497 -0.399892 -0.092044
v 0.160134 -0.399892 -0.050000
v 0.168497 -0.399892 -0.007956
v 0.192313 -0.399892 0.027687
v 0.227956 -0.399892 0.051503
v 0.270000 -0.420856 0.062411
v 0.313018 -0.420856 0.053855
v 0.349487 -0.420856 0.029487
v 0.373855 -0.420856 -0.006982
v 0.382411 -0.420856 -0.050000
v 0.373855 -0.420856 -0.093018
v 0.349487 -0.420856 -0.129487
v 0.313018 -0.420856 -0.153855
v 0.270000 -0.420856 -0.162411
v 0.226982 -0.420856 -0.153855
v 0.190513 -0.420856 -0.129487
v 0.166145 -0.420856 -0.093018
v 0.157589 -0.420856 -0.050000
v 0.166145 -0.420856 -0.006982
v 0.190513 -0.420856 0.029487
v 0.226982 -0.420856 0.053855
v 0.270000 -0.438635 0.053816
v 0.309729 -0.438635 0.045914
v 0.343409 -0.438635 0.023409
v 0.365914 -0.438635 -0.010271
v 0.373816 -0.438635 -0.050000
v 0.365914 -0.438635 -0.089729
v 0.343409 -0.438635 -0.123409
v 0.309729 -0.438635 -0.145914
v 0.270000 -0.438635 -0.153816
v 0.230271 -0.438635 -0.145914
v 0.196591 -0.438635 -0.123409
v 0.174086 -0.438635 -0.089729
v 0.166184 -0.438635 -0.050000
v 0.174086 -0.438635 -0.010271
v 0.196591 -0.438635 0.023409
v 0.230271 -0.438635 0.045914
v 0.270000 -0.446842 0.040297
v 0.304555 -0.446842 0.033424
v 0.333850 -0.446842 0.013850
v 0.353424 -0.446842 -0.015445
v 0.360297 -0.446842 -0.050000
v 0.353424 -0.446842 -0.084555
v 0.333850 -0.446842 -0.113850
v 0.304555 -0.446842 -0.133424
v 0.270000 -0.446842 -0.140297
v 0.235445 -0.446842 -0.133424
v 0.206150 -0.446842 -0.113850
v 0.186576 -0.446842 -0.084555
v 0.179703 -0.446842 -0.050000
v 0.186576 -0.446842 -0.015445
v 0.206150 -0.446842 0.013850
v 0.235445 -0.446842 0.033424
v 0.270000 -0.445170 0.027142
v 0.299521 -0.445170 0.021270
v 0.324548 -0.445170 0.004548
v 0.341270 -0.445170 -0.020479
v 0.347142 -0.445170 -0.050000
v 0.341270 -0.445170 -0.079521
v 0.324548 -0.445170 -0.104548
v 0.299521 -0.445170 -0.121270
v 0.270000 -0.445170 -0.127142
v 0.240479 -0.445170 -0.121270
v 0.215452 -0.445170 -0.104548
v 0.198730 -0.445170 -0.079521
v 0.192858 -0.445170 -0.050000
v 0.198730 -0.445170 -0.020479
v 0.215452 -0.445170 0.004548
v 0.240479 -0.445170 0.021270
v 0.270000 -0.439640 0.017436
v 0.295807 -0.439640 0.012303
v 0.317685 -0.439640 -0.002315
v 0.332303 -0.439640 -0.024193
v 0.337436 -0.439640 -0.050000
v 0.332303 -0.439640 -0.075807
v 0.317685 -0.439640 -0.097685
v 0.295807 -0.439640 -0.112303
v 0.270000 -0.439640 -0.117436
v 0.244193 -0.439640 -0.112303
v 0.222315 -0.439640 -0.097685
v 0.207697 -0.439640 -0.075807
v 0.202564 -0.439640 -0.050000
v 0.207697 -0.439640 -0.024193
v 0.222315 -0.439640 -0.002315
v 0.244193 -0.439640 0.012303
vn -0.5664 0.7901 0.2346
vn -0.8806 0.4738 -0.0000
vn -0.8136 0.4738 0.3370
vn 0.4335 0.7901 -0.4335
vn 0.8136 0.4738 -0.3370
vn 0.6227 0.4738 -0.6227
vn -0.4335 0.7901 0.4335
vn -0.6227 0.4738 0.6227
vn 0.3370 0.4738 -0.8136
vn 0.2346 0.7901 -0.5664
vn -0.3370 0.4738 0.8136
vn -0.2346 0.7901 0.5664
vn -0.0000 0.4738 -0.8806
vn -0.0000 0.7901 -0.6130
vn 0.2346 0.7901 0.5664
vn -0.0000 0.4738 0.8806
vn 0.3370 0.4738 0.8136
vn -0.0000 0.7901 0.6130
vn -0.2346 0.7901 -0.5664
vn -0.3370 0.4738 -0.8136
vn 0.4335 0.7901 0.4335
vn 0.6227 0.4738 0.6227
vn -0.4335 0.7901 -0.4335
vn -0.6227 0.4738 -0.6227
vn 0.8136 0.4738 0.3370
vn 0.5664 0.7901 0.2346
vn -0.8136 0.4738 -0.3370
vn -0.5664 0.7901 -0.2346
vn 0.8806 0.4738 -0.0000
vn 0.6130 0.7901 -0.0000
vn -0.6130 0.7901 -0.0000
vn 0.5664 0.7901 -0.2346
vn 0.6982 -0.1586 0.6982
vn 0.9122 -0.1586 0.3778
vn -0.6982 -0.1586 -0.6982
vn -0.9122 -0.1586 -0.3778
vn 0.9873 -0.1586 -0.0000
vn -0.9873 -0.1586 -0.0000
vn 0.9122 -0.1586 -0.3778
vn -0.9122 -0.1586 0.3778
vn 0.6982 -0.1586 -0.6982
vn -0.6982 -0.1586 0.6982
vn 0.3778 -0.1586 -0.9122
vn -0.3778 -0.1586 0.9122
vn -0.0000 -0.1586 -0.9873
vn 0.3778 -0.1586 0.9122
vn -0.0000 -0.1586 0.9873
vn -0.3778 -0.1586 -0.9122
vn 0.2890 -0.6555 -0.6977
vn -0.0000 -0.6555 -0.7552
vn 0.2890 -0.6555 0.6977
vn -0.2890 -0.6555 0.6977
vn -0.0000 -0.6555 0.7552
vn -0.2890 -0.6555 -0.6977
vn 0.5340 -0.6555 0.5340
vn -0.5340 -0.6555 -0.5340
vn 0.6977 -0.6555 0.2890
vn -0.6977 -0.6555 -0.2890
vn 0.7552 -0.6555 -0.0000
vn -0.7552 -0.6555 -0.0000
vn 0.6977 -0.6555 -0.2890
vn -0.6977 -0.6555 0.2890
vn 0.5340 -0.6555 -0.5340
vn -0.5340 -0.6555 0.5340
vn 0.2280 -0.9691 -0.0944
vn -0.2280 -0.9691 0.0944
vn 0.1745 -0.9691 -0.1745
vn -0.1745 -0.9691 0.1745
vn 0.0944 -0.9691 -0.2280
vn -0.0944 -0.9691 0.2280
vn -0.0000 -0.9691 -0.2468
vn 0.0944 -0.9691 0.2280
vn -0.0000 -0.9691 0.2468
vn -0.0944 -0.9691 -0.2280
vn 0.1745 -0.9691 0.1745
vn -0.1745 -0.9691 -0.1745
vn 0.2280 -0.9691 0.0944
vn -0.2280 -0.9691 -0.0944
vn 0.2468 -0.9691 -0.0000
vn -0.2468 -0.9691 -0.0000
vn 0.1127 -0.9557 0.2720
vn 0.2082 -0.9557 0.2082
vn -0.2720 -0.9557 -0.1127
vn 0.2720 -0.9557 0.1127
vn -0.2944 -0.9557 -0.0000
vn 0.2944 -0.9557 -0.0000
vn -0.2720 -0.9557 0.1127
vn 0.2720 -0.9557 -0.1127
vn -0.2082 -0.9557 0.2082
vn 0.2082 -0.9557 -0.2082
vn -0.1127 -0.9557 0.2720
vn 0.1127 -0.9557 -0.2720
vn -0.0000 -0.9557 0.2944
vn -0.0000 -0.9557 -0.2944
vn -0.1127 -0.9557 -0.2720
vn -0.2082 -0.9557 -0.2082
vn 0.3501 -0.8689 -0.3501
vn 0.1894 -0.8689 -0.4574
vn -0.0000 -0.8689 0.4950
vn -0.0000 -0.8689 -0.4950
vn -0.1894 -0.8689 -0.4574
vn 0.1894 -0.8689 0.4574
vn -0.3501 -0.8689 -0.3501
vn 0.3501 -0.8689 0.3501
vn -0.4574 -0.8689 -0.1894
vn 0.4574 -0.8689 0.1894
vn -0.4950 -0.8689 -0.0000
vn 0.4950 -0.8689 -0.0000
vn -0.4574 -0.8689 0.1894
vn 0.4574 -0.8689 -0.1894
vn -0.3501 -0.8689 0.3501
vn -0.1894 -0.8689 0.4574
vt 0.415661 0.001096
vt 0.592910 0.071132
vt 0.426278 0.067440
vt 0.768010 0.921381
vt 0.564257 0.919433
vt 0.728029 0.857876
vt 0.229230 0.060834
vt 0.269411 0.126190
vt 0.847855 0.736896
vt 0.907288 0.778223
vt 0.146726 0.239512
vt 0.092271 0.199993
vt 0.910983 0.584094
vt 0.978837 0.599447
vt 0.000099 0.570434
vt 0.077534 0.391101
vt 0.071682 0.559610
vt 0.002471 0.372714
vt 0.978837 0.414272
vt 0.914966 0.423714
vt 0.070458 0.750942
vt 0.131297 0.714842
vt 0.924517 0.233599
vt 0.862698 0.269720
vt 0.241790 0.836049
vt 0.201581 0.888584
vt 0.748898 0.143046
vt 0.796238 0.079055
vt 0.390813 0.910370
vt 0.372097 0.981378
vt 0.609698 0.000099
vt 0.576535 0.999901
vt 0.196763 0.674810
vt 0.288841 0.774764
vt 0.794738 0.309251
vt 0.703266 0.204950
vt 0.412029 0.832560
vt 0.575820 0.149451
vt 0.552248 0.841947
vt 0.439656 0.144306
vt 0.683325 0.789547
vt 0.310640 0.191810
vt 0.782837 0.694099
vt 0.209464 0.284384
vt 0.837001 0.569220
vt 0.147752 0.546942
vt 0.150763 0.408747
vt 0.841993 0.434936
vt 0.732792 0.660598
vt 0.778847 0.557212
vt 0.207217 0.537593
vt 0.258540 0.319136
vt 0.209672 0.422794
vt 0.783393 0.444356
vt 0.248090 0.642695
vt 0.743307 0.338717
vt 0.323471 0.725736
vt 0.666564 0.255358
vt 0.426056 0.773781
vt 0.562702 0.207607
vt 0.541351 0.780387
vt 0.449273 0.204548
vt 0.649623 0.739193
vt 0.342888 0.242831
vt 0.533958 0.735653
vt 0.455781 0.248102
vt 0.625540 0.701468
vt 0.365691 0.280790
vt 0.696379 0.635158
vt 0.294482 0.345703
vt 0.735797 0.547520
vt 0.251007 0.530281
vt 0.253530 0.433548
vt 0.739592 0.451839
vt 0.285100 0.619625
vt 0.705873 0.362180
vt 0.349757 0.690090
vt 0.640379 0.291444
vt 0.436920 0.730621
vt 0.552188 0.251216
vt 0.703761 0.457630
vt 0.675179 0.381098
vt 0.371073 0.660918
vt 0.619110 0.320990
vt 0.445583 0.695600
vt 0.543954 0.286536
vt 0.528266 0.699392
vt 0.461471 0.284042
vt 0.606299 0.670415
vt 0.384282 0.311666
vt 0.666748 0.613869
vt 0.323644 0.367171
vt 0.700818 0.539198
vt 0.289282 0.441993
vt 0.286530 0.524154
vt 0.315677 0.600585
vt 0.400011 0.337675
vt 0.348220 0.385097
vt 0.671474 0.532228
vt 0.318677 0.448953
vt 0.316402 0.519168
vt 0.674071 0.462581
vt 0.341263 0.584738
vt 0.649592 0.397140
vt 0.389018 0.636255
vt 0.601488 0.345538
vt 0.452785 0.666349
vt 0.536902 0.316444
vt 0.523593 0.669166
vt 0.466094 0.313786
vt 0.590175 0.644153
vt 0.642172 0.596062
s 1
f 14/1/1 29/2/2 30/3/3
f 7/4/4 22/5/5 23/6/6
f 15/7/7 30/3/3 31/8/8
f 7/4/4 24/9/9 8/10/10
f 15/7/7 32/11/11 16/12/12
f 8/10/10 25/13/13 9/14/14
f 2/15/15 17/16/16 18/17/17
f 16/12/12 17/16/16 1/18/18
f 10/19/19 25/13/13 26/20/20
f 3/21/21 18/17/17 19/22/22
f 11/23/23 26/20/20 27/24/24
f 3/21/21 20/25/25 4/26/26
f 11/23/23 28/27/27 12/28/28
f 4/26/26 21/29/29 5/30/30
f 12/28/28 29/2/2 13/31/31
f 6/32/32 21/29/29 22/5/5
f 20/25/25 35/33/33 36/34/34
f 28/27/27 43/35/35 44/36/36
f 21/29/29 36/34/34 37/37/37
f 29/2/2 44/36/36 45/38/38
f 21/29/29 38/39/39 22/5/5
f 29/2/2 46/40/40 30/3/3
f 22/5/5 39/41/41 23/6/6
f 30/3/3 47/42/42 31/8/8
f 24/9/9 39/41/41 40/43/43
f 32/11/11 47/42/42 48/44/44
f 25/13/13 40/43/43 41/45/45
f 17/16/16 34/46/46 18/17/17
f 17/16/16 48/44/44 33/47/47
f 25/13/13 42/48/48 26/20/20
f 18/17/17 35/33/33 19/22/22
f 26/20/20 43/35/35 27/24/24
f 41/45/45 56/49/49 57/50/50
f 33/47/47 50/51/51 34/46/46
f 33/47/47 64/52/52 49/53/53
f 41/45/45 58/54/54 42/48/48
f 35/33/33 50/51/51 51/55/55
f 43/35/35 58/54/54 59/56/56
f 35/33/33 52/57/57 36/34/34
f 43/35/35 60/58/58 44/36/36
f 37/37/37 52/57/57 53/59/59
f 45/38/38 60/58/58 61/60/60
f 37/37/37 54/61/61 38/39/39
f 45/38/38 62/62/62 46/40/40
f 39/41/41 54/61/61 55/63/63
f 47/42/42 62/62/62 63/64/64
f 39/41/41 56/49/49 40/43/43
f 47/42/42 64/52/52 48/44/44
f 53/59/59 70/65/65 54/61/61
f 61/60/60 78/66/66 62/62/62
f 54/61/61 71/67/67 55/63/63
f 62/62/62 79/68/68 63/64/64
f 56/49/49 71/67/67 72/69/69
f 64/52/52 79/68/68 80/70/70
f 57/50/50 72/69/69 73/71/71
f 49/53/53 66/72/72 50/51/51
f 49/53/53 80/70/70 65/73/73
f 57/50/50 74/74/74 58/54/54
f 50/51/51 67/75/75 51/55/55
f 58/54/54 75/76/76 59/56/56
f 52/57/57 67/75/75 68/77/77
f 60/58/58 75/76/76 76/78/78
f 53/59/59 68/77/77 69/79/79
f 61/60/60 76/78/78 77/80/80
f 75/76/76 90/81/81 91/82/82
f 67/75/75 84/83/83 68/77/77
f 75/76/76 92/84/84 76/78/78
f 68/77/77 85/85/85 69/79/79
f 76/78/78 93/86/86 77/80/80
f 70/65/65 85/85/85 86/87/87
f 78/66/66 93/86/86 94/88/88
f 71/67/67 86/87/87 87/89/89
f 79/68/68 94/88/88 95/90/90
f 71/67/67 88/91/91 72/69/69
f 79/68/68 96/92/92 80/70/70
f 72/69/69 89/93/93 73/71/71
f 66/72/72 81/94/94 82/95/95
f 80/70/70 81/94/94 65/73/73
f 74/74/74 89/93/93 90/81/81
f 67/75/75 82/95/95 83/96/96
f 96/92/92 111/97/97 112/98/98
f 88/91/91 105/99/99 89/93/93
f 82/95/95 97/100/100 98/101/101
f 96/92/92 97/100/100 81/94/94
f 90/81/81 105/99/99 106/102/102
f 82/95/95 99/103/103 83/96/96
f 90/81/81 107/104/104 91/82/82
f 84/83/83 99/103/103 100/105/105
f 92/84/84 107/104/104 108/106/106
f 84/83/83 101/107/107 85/85/85
f 92/84/84 109/108/108 93/86/86
f 86/87/87 101/107/107 102/109/109
f 94/88/88 109/108/108 110/110/110
f 86/87/87 103/111/111 87/89/89
f 94/88/88 111/97/97 95/90/90
f 88/91/91 103/111/111 104/112/112
f 14/1/1 13/31/31 29/2/2
f 7/4/4 6/32/32 22/5/5
f 15/7/7 14/1/1 30/3/3
f 7/4/4 23/6/6 24/9/9
f 15/7/7 31/8/8 32/11/11
f 8/10/10 24/9/9 25/13/13
f 2/15/15 1/18/18 17/16/16
f 16/12/12 32/11/11 17/16/16
f 10/19/19 9/14/14 25/13/13
f 3/21/21 2/15/15 18/17/17
f 11/23/23 10/19/19 26/20/20
f 3/21/21 19/22/22 20/25/25
f 11/23/23 27/24/24 28/27/27
f 4/26/26 20/25/25 21/29/29
f 12/28/28 28/27/27 29/2/2
f 6/32/32 5/30/30 21/29/29
f 20/25/25 19/22/22 35/33/33
f 28/27/27 27/24/24 43/35/35
f 21/29/29 20/25/25 36/34/34
f 29/2/2 28/27/27 44/36/36
f 21/29/29 37/37/37 38/39/39
f 29/2/2 45/38/38 46/40/40
f 22/5/5 38/39/39 39/41/41
f 30/3/3 46/40/40 47/42/42
f 24/9/9 23/6/6 39/41/41
f 32/11/11 31/8/8 47/42/42
f 25/13/13 24/9/9 40/43/43
f 17/16/16 33/47/47 34/46/46
f 17/16/16 32/11/11 48/44/44
f 25/13/13 41/45/45 42/48/48
f 18/17/17 34/46/46 35/33/33
f 26/20/20 42/48/48 43/35/35
f 41/45/45 40/43/43 56/49/49
f 33/47/47 49/53/53 50/51/51
f 33/47/47 48/44/44 64/52/52
f 41/45/45 57/50/50 58/54/54
f 35/33/33 34/46/46 50/51/51
f 43/35/35 42/48/48 58/54/54
f 35/33/33 51/55/55 52/57/57
f 43/35/35 59/56/56 60/58/58
f 37/37/37 36/34/34 52/57/57
f 45/38/38 44/36/36 60/58/58
f 37/37/37 53/59/59 54/61/61
f 45/38/38 61/60/60 62/62/62
f 39/41/41 38/39/39 54/61/61
f 47/42/42 46/40/40 62/62/62
f 39/41/41 55/63/63 56/49/49
f 47/42/42 63/64/64 64/52/52
f 53/59/59 69/79/79 70/65/65
f 61/60/60 77/80/80 78/66/66
f 54/61/61 70/65/65 71/67/67
f 62/62/62 78/66/66 79/68/68
f 56/49/49 55/63/63 71/67/67
f 64/52/52 63/64/64 79/68/68
f 57/50/50 56/49/49 72/69/69
f 49/53/53 65/73/73 66/72/72
f 49/53/53 64/52/52 80/70/70
f 57/50/50 73/71/71 74/74/74
f 50/51/51 66/72/72 67/75/75
f 58/54/54 74/74/74 75/76/76
f 52/57/57 51/55/55 67/75/75
f 60/58/58 59/56/56 75/76/76
f 53/59/59 52/57/57 68/77/77
f 61/60/60 60/58/58 76/78/78
f 75/76/76 74/74/74 90/81/81
f 67/75/75 83/96/96 84/83/83
f 75/76/76 91/82/82 92/84/84
f 68/77/77 84/83/83 85/85/85
f 76/78/78 92/84/84 93/86/86
f 70/65/65 69/79/79 85/85/85
f 78/66/66 77/80/80 93/86/86
f 71/67/67 70/65/65 86/87/87
f 79/68/68 78/66/66 94/88/88
f 71/67/67 87/89/89 88/91/91
f 79/68/68 95/90/90 96/92/92
f 72/69/69 88/91/91 89/93/93
f 66/72/72 65/73/73 81/94/94
f 80/70/70 96/92/92 81/94/94
f 74/74/74 73/71/71 89/93/93
f 67/75/75 66/72/72 82/95/95
f 96/92/92 95/90/90 111/97/97
f 88/91/91 104/112/112 105/99/99
f 82/95/95 81/94/94 97/100/100
f 96/92/92 112/98/98 97/100/100
f 90/81/81 89/93/93 105/99/99
f 82/95/95 98/101/101 99/103/103
f 90/81/81 106/102/102 107/104/104
f 84/83/83 83/96/96 99/103/103
f 92/84/84 91/82/82 107/104/104
f 84/83/83 100/105/105 101/107/107
f 92/84/84 108/106/106 109/108/108
f 86/87/87 85/85/85 101/107/107
f 94/88/88 93/86/86 109/108/108
f 86/87/87 102/109/109 103/111/111
f 94/88/88 110/110/110 111/97/97
f 88/91/91 87/89/89 103/111/111
