# Blender 4.2.1 LTS
# www.blender.org
o Dpad_Up
v -0.224915 -0.297619 -0.031578
v -0.242143 -0.292646 -0.049050
v -0.217108 -0.298200 -0.023542
v -0.247582 -0.298773 -0.021990
v -0.230819 -0.301353 -0.015485
v -0.231744 -0.307199 0.004245
v -0.248160 -0.305756 0.002291
v -0.222404 -0.301186 -0.010883
v -0.223886 -0.306182 0.005743
v -0.231812 -0.318037 0.035948
v -0.231881 -0.321531 0.045158
v -0.224512 -0.320013 0.045215
v -0.224185 -0.316569 0.036059
v -0.248162 -0.320566 0.045127
v -0.248160 -0.317083 0.035861
v -0.231976 -0.323504 0.054054
v -0.248169 -0.322657 0.054258
v -0.225504 -0.323484 0.052975
v -0.291334 -0.292612 -0.049045
v -0.266742 -0.297779 -0.024317
v -0.266742 -0.305144 0.001485
v -0.266742 -0.291556 -0.051093
v -0.285897 -0.298747 -0.021985
v -0.285322 -0.305726 0.002291
v -0.266743 -0.287403 -0.074001
v -0.308540 -0.297561 -0.031552
v -0.302644 -0.301297 -0.015468
v -0.311046 -0.301119 -0.010855
v -0.316329 -0.298133 -0.023500
v -0.301733 -0.307140 0.004248
v -0.309585 -0.306113 0.005750
v -0.301672 -0.317988 0.035945
v -0.301678 -0.313397 0.022514
v -0.309327 -0.311989 0.022804
v -0.309298 -0.316507 0.036054
v -0.285324 -0.312460 0.022199
v -0.285325 -0.317061 0.035859
v -0.266742 -0.316658 0.035823
v -0.266742 -0.312073 0.022070
v -0.248160 -0.312493 0.022201
v -0.231806 -0.313453 0.022516
v -0.224155 -0.312055 0.022807
v -0.301507 -0.323446 0.054048
v -0.301604 -0.321478 0.045154
v -0.308971 -0.319945 0.045210
v -0.307979 -0.323419 0.052969
v -0.285323 -0.320543 0.045125
v -0.285315 -0.322632 0.054256
v -0.266742 -0.322163 0.054217
v -0.266742 -0.320096 0.045089
v -0.209780 -0.249589 -0.019577
v -0.209780 -0.286881 -0.017099
v -0.213430 -0.252088 -0.009353
v -0.213430 -0.289341 -0.006878
v -0.213913 -0.256062 0.004150
v -0.213913 -0.293140 0.006613
v -0.213913 -0.261330 0.019600
v -0.213913 -0.298331 0.022058
v -0.213913 -0.268040 0.036769
v -0.213913 -0.304235 0.037085
v -0.214555 -0.275844 0.054155
v -0.214555 -0.308851 0.048733
v -0.219254 -0.281075 0.066553
v -0.219254 -0.313582 0.060868
v -0.230970 -0.282628 0.071415
v -0.230970 -0.317230 0.067584
v -0.248181 -0.281929 0.072003
v -0.248181 -0.316559 0.068174
v -0.266741 -0.281414 0.071968
v -0.266741 -0.316044 0.068139
v -0.285301 -0.281902 0.072001
v -0.285301 -0.316532 0.068172
v -0.302513 -0.282567 0.071411
v -0.302513 -0.317168 0.067580
v -0.314230 -0.281002 0.066547
v -0.314230 -0.313508 0.060862
v -0.318929 -0.275758 0.054148
v -0.318929 -0.308577 0.048181
v -0.319571 -0.268046 0.036768
v -0.319571 -0.303789 0.036147
v -0.319570 -0.261696 0.019626
v -0.319570 -0.298933 0.022100
v -0.319557 -0.256384 0.004189
v -0.319557 -0.293676 0.006666
v -0.320010 -0.252087 -0.009305
v -0.320010 -0.289378 -0.006827
v -0.323639 -0.249516 -0.019516
v -0.323639 -0.286807 -0.017038
v -0.210972 -0.294927 -0.017276
v -0.214923 -0.297536 -0.006667
v -0.215623 -0.301842 0.007354
v -0.215692 -0.311686 0.036097
v -0.216284 -0.315977 0.046752
v -0.231169 -0.321725 0.061802
v -0.248179 -0.320976 0.062325
v -0.220524 -0.320430 0.057420
v -0.318518 -0.297486 -0.006624
v -0.322450 -0.294855 -0.017218
v -0.317847 -0.301890 0.007374
v -0.317793 -0.311637 0.036092
v -0.317798 -0.307348 0.023088
v -0.215684 -0.307285 0.023082
v -0.302315 -0.321664 0.061798
v -0.312960 -0.320359 0.057414
v -0.317200 -0.315442 0.046097
v -0.285304 -0.320949 0.062323
v -0.266742 -0.320465 0.062289
vn -0.0340 -0.9469 -0.3196
vn 0.0630 -0.9516 -0.3007
vn 0.0662 -0.9445 -0.3218
vn 0.7935 -0.5839 0.1717
vn 0.9823 -0.0782 0.1703
vn 0.8031 -0.5956 -0.0189
vn 0.0086 -0.9759 -0.2180
vn -0.0327 -0.9672 -0.2517
vn -0.0322 -0.9758 -0.2163
vn 0.3371 -0.8994 -0.2783
vn 0.0362 -0.9689 -0.2449
vn -0.0321 -0.9536 -0.2992
vn -0.0676 -0.9443 -0.3222
vn 0.0355 -0.9414 -0.3354
vn -0.0681 -0.9391 -0.3369
vn 0.8071 -0.5662 -0.1672
vn 0.3346 -0.8884 -0.3143
vn 0.3337 -0.8928 -0.3026
vn 0.3114 -0.9332 -0.1796
vn -0.0007 -0.9549 -0.2968
vn 0.2642 -0.9574 -0.1162
vn -0.0007 -0.9796 -0.2011
vn -0.0007 -0.9840 -0.1784
vn 0.1710 -0.8641 0.4734
vn 0.3147 -0.9473 -0.0609
vn 0.6177 -0.6950 0.3680
vn 0.0443 -0.9495 -0.3106
vn 0.3538 -0.8836 -0.3067
vn 0.0665 -0.9392 -0.3369
vn -0.0398 -0.9567 -0.2883
vn -0.0007 -1.0000 -0.0086
vn -0.0006 -0.9582 -0.2860
vn -0.0401 -0.9992 -0.0084
vn -0.0216 -0.9997 0.0124
vn -0.0006 -0.9431 -0.3326
vn -0.0008 -0.9481 -0.3181
vn -0.0265 -0.9081 0.4178
vn 0.7518 -0.2713 0.6010
vn 0.2731 -0.4787 0.8344
vn -0.0379 -0.9689 -0.2446
vn 0.0304 -0.9537 -0.2992
vn -0.0646 -0.9515 -0.3008
vn -0.0104 -0.9759 -0.2178
vn 0.0312 -0.9673 -0.2516
vn -0.0007 -0.9687 -0.2482
vn 0.0308 -0.9758 -0.2163
vn 0.0326 -0.9469 -0.3199
vn -0.0368 -0.9415 -0.3351
vn -0.2654 -0.9571 -0.1161
vn -0.3123 -0.9328 -0.1800
vn -0.3646 -0.8795 -0.3059
vn -0.0460 -0.9495 -0.3103
vn -0.3340 -0.8999 -0.2803
vn -0.7820 -0.6041 0.1538
vn -0.7998 -0.5728 -0.1796
vn -0.3302 -0.8942 -0.3023
vn -0.3377 -0.8884 -0.3110
vn 0.8004 -0.5699 -0.1862
vn 0.7984 -0.5697 -0.1948
vn -0.7920 -0.5788 -0.1941
vn -0.7999 -0.5744 -0.1738
vn 0.0385 -0.9992 -0.0081
vn 0.0200 -0.9997 0.0127
vn -0.8066 -0.5906 -0.0251
vn 0.7966 -0.6020 -0.0559
vn -0.9936 -0.1070 -0.0365
vn 0.0255 -0.9083 0.4175
vn -0.1612 -0.8664 0.4726
vn -0.6623 -0.6683 0.3386
vn -0.8010 -0.5943 -0.0721
vn -0.3156 -0.9470 -0.0607
vn 0.0001 -0.9096 0.4155
vn 0.0383 -0.9568 -0.2882
vn 0.9443 -0.0478 0.3257
vn 0.9816 0.0127 0.1908
vn 0.9954 -0.0949 -0.0090
vn 1.0000 -0.0000 -0.0000
vn 0.9944 -0.0994 -0.0350
vn 0.9935 -0.1127 -0.0149
vn 0.9998 0.0005 0.0194
vn 0.9766 -0.0214 0.2140
vn 0.9766 -0.1487 0.1557
vn 0.2298 -0.1294 0.9646
vn 0.7024 -0.1130 0.7028
vn -0.0004 -0.4892 0.8722
vn 0.0119 -0.1099 0.9939
vn -0.0001 -0.1099 0.9939
vn -0.0021 -0.4913 0.8710
vn -0.7570 -0.2708 0.5947
vn 0.0012 -0.4914 0.8710
vn -0.0122 -0.1099 0.9939
vn -1.0000 -0.0000 -0.0006
vn -0.9948 -0.1008 -0.0134
vn -0.2301 -0.1294 0.9645
vn -0.9771 -0.1518 0.1491
vn -0.7042 -0.1153 0.7006
vn -0.9765 -0.0246 0.2143
vn -0.2738 -0.4784 0.8344
vn -0.9828 -0.0783 0.1670
vn -0.9999 0.0011 0.0167
vn -0.9449 -0.0472 0.3239
vn -0.9819 0.0126 0.1891
vn -0.9384 -0.0337 0.3438
vn 0.9998 0.0012 0.0182
vn -0.9938 -0.1105 -0.0147
vn -0.9998 0.0001 0.0195
vn 0.9381 -0.0320 0.3449
vt 0.332355 0.501648
vt 0.339534 0.381099
vt 0.278971 0.452329
vt 0.342056 0.191822
vt 0.273577 0.218207
vt 0.309318 0.255827
vt 0.467608 0.203622
vt 0.510793 0.343828
vt 0.621757 0.217392
vt 0.303814 0.358071
vt 0.416425 0.295853
vt 0.407277 0.434424
vt 0.455724 0.703935
vt 0.373453 0.666068
vt 0.400029 0.723933
vt 0.261795 0.329323
vt 0.218231 0.478399
vt 0.251595 0.430440
vt 0.362458 0.277939
vt 0.469411 0.506549
vt 0.398627 0.200299
vt 0.719793 0.331012
vt 0.835623 0.249848
vt 0.176734 0.558118
vt 0.187530 0.530423
vt 0.168839 0.527462
vt 0.217980 0.525261
vt 0.199373 0.507981
vt 0.241287 0.497952
vt 0.257197 0.567592
vt 0.270570 0.646110
vt 0.300722 0.624940
vt 0.229760 0.588996
vt 0.197297 0.545950
vt 0.333454 0.601962
vt 0.384531 0.566107
vt 0.205441 0.606388
vt 0.146041 0.528602
vt 0.157861 0.568838
vt 0.649304 0.627974
vt 0.516107 0.589465
vt 0.543200 0.671196
vt 0.753281 0.611312
vt 0.636447 0.523042
vt 0.588085 0.423327
vt 0.793099 0.461880
vt 0.427457 0.637042
vt 0.286723 0.542580
vt 0.732760 0.677157
vt 0.647681 0.684709
vt 0.376423 0.760010
vt 0.366452 0.736603
vt 0.552690 0.712542
vt 0.721337 0.733123
vt 0.423881 0.788650
vt 0.467038 0.737073
vt 0.410628 0.752238
vt 0.188448 0.453554
vt 0.217289 0.401340
vt 0.482531 0.778895
vt 0.565105 0.761506
vt 0.310457 0.703877
vt 0.339959 0.749026
vt 0.650222 0.742104
vt 0.173268 0.492486
vt 0.505608 0.813648
vt 0.285841 0.720862
vt 0.321528 0.764259
vt 0.347701 0.782033
vt 0.384637 0.790133
vt 0.351256 0.763481
vt 0.244172 0.664652
vt 0.339905 0.685343
vt 0.305646 0.158773
vt 0.114884 0.058957
vt 0.232074 0.289778
vt 0.042938 0.226344
vt 0.190698 0.365930
vt 0.162132 0.435053
vt 0.011953 0.332189
vt 0.000091 0.443939
vt 0.149066 0.483232
vt 0.009389 0.595023
vt 0.002726 0.524310
vt 0.220446 0.681326
vt 0.037958 0.686212
vt 0.088791 0.773875
vt 0.182336 0.620863
vt 0.338986 0.803170
vt 0.264391 0.737706
vt 0.153945 0.851491
vt 0.587447 0.999909
vt 0.590869 0.800323
vt 0.229977 0.909467
vt 0.384716 0.815620
vt 0.294356 0.939864
vt 0.369317 0.969423
vt 0.305046 0.778412
vt 0.673269 0.787885
vt 0.685334 0.996412
vt 0.740052 0.778462
vt 0.769572 0.990734
vt 0.835623 0.981060
vt 0.079560 0.135307
vt 0.436555 0.819848
vt 0.478551 0.995204
vt 0.146742 0.000091
s 1
f 40/1/1 6/2/2 41/3/3
f 89/4/4 54/5/5 90/6/6
f 1/7/7 4/8/8 2/9/9
f 9/10/10 41/3/3 6/2/2
f 5/11/11 7/12/12 4/8/8
f 33/13/13 37/14/14 32/15/15
f 9/10/10 90/6/6 91/16/16
f 13/17/17 41/3/3 42/18/18
f 8/19/19 6/2/2 5/11/11
f 21/20/20 4/8/8 7/12/12
f 5/11/11 3/21/21 8/19/19
f 2/9/9 22/22/22 25/23/23
f 94/24/24 18/25/25 96/26/26
f 18/25/25 11/27/27 12/28/28
f 12/28/28 10/29/29 13/17/17
f 14/30/30 49/31/31 50/32/32
f 17/33/33 11/27/27 16/34/34
f 40/1/1 38/35/35 39/36/36
f 95/37/37 16/34/34 94/24/24
f 94/24/24 64/38/38 66/39/39
f 27/40/40 24/41/41 30/42/42
f 26/43/43 23/44/44 27/40/40
f 20/45/45 19/46/46 22/22/22
f 23/44/44 21/20/20 24/41/41
f 30/42/42 36/47/47 33/13/13
f 15/48/48 50/32/32 38/35/35
f 29/49/49 27/40/40 28/50/50
f 45/51/51 32/15/15 44/52/52
f 28/50/50 30/42/42 31/53/53
f 28/50/50 98/54/54 29/49/49
f 36/47/47 38/35/35 37/14/14
f 100/55/55 34/56/56 35/57/57
f 92/58/58 42/18/18 102/59/59
f 31/53/53 101/60/60 99/61/61
f 44/52/52 48/62/62 43/63/63
f 31/53/53 97/64/64 28/50/50
f 31/53/53 33/13/13 34/56/56
f 96/26/26 12/28/28 93/65/65
f 35/57/57 33/13/13 32/15/15
f 24/41/41 39/36/36 36/47/47
f 50/32/32 37/14/14 38/35/35
f 82/66/66 99/61/61 101/60/60
f 7/12/12 39/36/36 21/20/20
f 102/59/59 9/10/10 91/16/16
f 41/3/3 15/48/48 40/1/1
f 2/9/9 20/45/45 22/22/22
f 43/63/63 106/67/67 103/68/68
f 45/51/51 104/69/69 105/70/70
f 46/71/71 44/52/52 43/63/63
f 49/31/31 95/37/37 107/72/72
f 103/68/68 46/71/71 43/63/63
f 47/73/73 49/31/31 48/62/62
f 49/31/31 106/67/67 48/62/62
f 52/74/74 53/75/75 54/5/5
f 56/76/76 90/6/6 54/5/5
f 56/76/76 57/77/77 58/78/78
f 60/79/79 102/59/59 58/78/78
f 58/78/78 59/80/80 60/79/79
f 60/79/79 61/81/81 62/82/82
f 64/38/38 65/83/83 66/39/39
f 62/82/82 63/84/84 64/38/38
f 70/85/85 67/86/86 69/87/87
f 68/88/88 65/83/83 67/86/86
f 103/68/68 76/89/89 104/69/69
f 107/72/72 72/90/90 106/67/67
f 70/85/85 71/91/91 72/90/90
f 81/92/92 84/93/93 82/66/66
f 73/94/94 72/90/90 71/91/91
f 78/95/95 75/96/96 77/97/97
f 73/94/94 76/89/89 74/98/98
f 105/70/70 76/89/89 78/95/95
f 97/64/64 84/93/93 86/99/99
f 83/100/100 86/99/99 84/93/93
f 86/99/99 98/54/54 97/64/64
f 88/101/101 85/102/102 87/103/103
f 107/72/72 68/88/88 70/85/85
f 74/98/98 106/67/67 72/90/90
f 54/5/5 55/104/104 56/76/76
f 64/38/38 93/65/65 62/82/82
f 47/73/73 32/15/15 37/14/14
f 105/70/70 35/57/57 45/51/51
f 91/16/16 58/78/78 102/59/59
f 80/105/105 101/60/60 100/55/55
f 77/97/97 80/105/105 78/95/95
f 10/29/29 14/30/30 15/48/48
f 95/37/37 66/39/39 68/88/88
f 79/106/106 82/66/66 80/105/105
f 93/65/65 13/17/17 92/58/58
f 92/58/58 62/82/82 93/65/65
f 89/4/4 8/19/19 3/21/21
f 100/55/55 78/95/95 80/105/105
f 19/46/46 25/23/23 22/22/22
f 40/1/1 7/12/12 6/2/2
f 89/4/4 52/74/74 54/5/5
f 1/7/7 5/11/11 4/8/8
f 9/10/10 42/18/18 41/3/3
f 5/11/11 6/2/2 7/12/12
f 33/13/13 36/47/47 37/14/14
f 9/10/10 8/19/19 90/6/6
f 13/17/17 10/29/29 41/3/3
f 8/19/19 9/10/10 6/2/2
f 21/20/20 20/45/45 4/8/8
f 5/11/11 1/7/7 3/21/21
f 94/24/24 16/34/34 18/25/25
f 18/25/25 16/34/34 11/27/27
f 12/28/28 11/27/27 10/29/29
f 14/30/30 17/33/33 49/31/31
f 17/33/33 14/30/30 11/27/27
f 40/1/1 15/48/48 38/35/35
f 95/37/37 17/33/33 16/34/34
f 94/24/24 96/26/26 64/38/38
f 27/40/40 23/44/44 24/41/41
f 26/43/43 19/46/46 23/44/44
f 20/45/45 23/44/44 19/46/46
f 23/44/44 20/45/45 21/20/20
f 30/42/42 24/41/41 36/47/47
f 15/48/48 14/30/30 50/32/32
f 29/49/49 26/43/43 27/40/40
f 45/51/51 35/57/57 32/15/15
f 28/50/50 27/40/40 30/42/42
f 28/50/50 97/64/64 98/54/54
f 36/47/47 39/36/36 38/35/35
f 100/55/55 101/60/60 34/56/56
f 92/58/58 13/17/17 42/18/18
f 31/53/53 34/56/56 101/60/60
f 44/52/52 47/73/73 48/62/62
f 31/53/53 99/61/61 97/64/64
f 31/53/53 30/42/42 33/13/13
f 96/26/26 18/25/25 12/28/28
f 35/57/57 34/56/56 33/13/13
f 24/41/41 21/20/20 39/36/36
f 50/32/32 47/73/73 37/14/14
f 82/66/66 84/93/93 99/61/61
f 7/12/12 40/1/1 39/36/36
f 102/59/59 42/18/18 9/10/10
f 41/3/3 10/29/29 15/48/48
f 2/9/9 4/8/8 20/45/45
f 43/63/63 48/62/62 106/67/67
f 45/51/51 46/71/71 104/69/69
f 46/71/71 45/51/51 44/52/52
f 49/31/31 17/33/33 95/37/37
f 103/68/68 104/69/69 46/71/71
f 47/73/73 50/32/32 49/31/31
f 49/31/31 107/72/72 106/67/67
f 52/74/74 51/107/107 53/75/75
f 56/76/76 91/16/16 90/6/6
f 56/76/76 55/104/104 57/77/77
f 60/79/79 92/58/58 102/59/59
f 58/78/78 57/77/77 59/80/80
f 60/79/79 59/80/80 61/81/81
f 64/38/38 63/84/84 65/83/83
f 62/82/82 61/81/81 63/84/84
f 70/85/85 68/88/88 67/86/86
f 68/88/88 66/39/39 65/83/83
f 103/68/68 74/98/98 76/89/89
f 107/72/72 70/85/85 72/90/90
f 70/85/85 69/87/87 71/91/91
f 81/92/92 83/100/100 84/93/93
f 73/94/94 74/98/98 72/90/90
f 78/95/95 76/89/89 75/96/96
f 73/94/94 75/96/96 76/89/89
f 105/70/70 104/69/69 76/89/89
f 97/64/64 99/61/61 84/93/93
f 83/100/100 85/102/102 86/99/99
f 86/99/99 88/101/101 98/54/54
f 88/101/101 86/99/99 85/102/102
f 107/72/72 95/37/37 68/88/88
f 74/98/98 103/68/68 106/67/67
f 54/5/5 53/75/75 55/104/104
f 64/38/38 96/26/26 93/65/65
f 47/73/73 44/52/52 32/15/15
f 105/70/70 100/55/55 35/57/57
f 91/16/16 56/76/76 58/78/78
f 80/105/105 82/66/66 101/60/60
f 77/97/97 79/106/106 80/105/105
f 10/29/29 11/27/27 14/30/30
f 95/37/37 94/24/24 66/39/39
f 79/106/106 81/92/92 82/66/66
f 93/65/65 12/28/28 13/17/17
f 92/58/58 60/79/79 62/82/82
f 89/4/4 90/6/6 8/19/19
f 100/55/55 105/70/70 78/95/95
