# Blender 4.2.1 LTS
# www.blender.org
o Left_Trigger
v 0.145195 0.019275 0.047993
v 0.132789 0.020724 0.092062
v 0.140989 0.046298 0.046252
v 0.128848 0.045571 0.096407
v 0.149312 0.004892 0.049583
v 0.135411 0.002568 0.087747
v 0.133788 0.086141 0.045600
v 0.121328 0.083347 0.103662
v 0.125698 0.127240 0.044163
v 0.114059 0.120144 0.110568
v 0.119881 0.164859 0.042400
v 0.105206 0.155820 0.125364
v 0.111645 0.211552 0.039709
v 0.092851 0.194662 0.149952
v 0.102024 0.255108 0.038492
v 0.091325 0.248011 0.105591
v 0.083999 0.282332 0.031061
v 0.076800 0.274759 0.100140
v 0.072768 0.264539 0.139038
v 0.056287 0.244406 0.189733
v 0.052751 0.299083 0.024806
v 0.048964 0.289650 0.099131
v 0.046416 0.277327 0.142077
v 0.041316 0.248472 0.190973
v 0.016516 0.299727 0.015624
v 0.018340 0.287789 0.093265
v 0.019711 0.274362 0.139283
v 0.023379 0.248507 0.188678
v -0.019183 0.292022 0.006954
v -0.013148 0.281252 0.085389
v -0.005567 0.268857 0.135316
v 0.003499 0.245559 0.184628
v -0.055387 0.276436 -0.005732
v -0.043882 0.271036 0.078158
v -0.030579 0.261045 0.129357
v -0.015100 0.242533 0.179183
v -0.088030 0.247567 -0.012072
v -0.074379 0.250583 0.068687
v -0.062656 0.245113 0.119345
v -0.037948 0.238502 0.167257
v -0.105698 0.218659 -0.014202
v -0.094344 0.217690 0.058986
v -0.080475 0.223550 0.101096
v -0.068247 0.229938 0.125428
v -0.101042 0.197803 0.059636
v -0.118967 0.186603 -0.016783
v -0.126922 0.159724 -0.017043
v -0.116528 0.164650 0.037120
v -0.108349 0.166959 0.053472
v -0.096031 0.194137 0.073278
v -0.080091 0.214994 0.103262
v -0.068445 0.221998 0.125551
v -0.035991 0.230626 0.169489
v -0.014002 0.233953 0.182312
v 0.004550 0.237244 0.188135
v 0.023729 0.240549 0.190593
v 0.039940 0.242099 0.192594
v 0.054974 0.238746 0.191911
v 0.089858 0.190124 0.154526
v 0.102354 0.152530 0.129332
v 0.111207 0.118647 0.116749
v 0.117870 0.081095 0.108676
v 0.125304 0.045133 0.101541
v 0.129281 0.021148 0.098142
v -0.134479 0.126702 -0.017136
v -0.123949 0.129989 0.029730
v -0.117550 0.131399 0.039515
v -0.142276 0.078891 -0.020797
v -0.130772 0.079865 0.020169
v -0.123702 0.079627 0.029744
v -0.145966 0.037678 -0.021162
v -0.136589 0.038763 0.015179
v -0.128335 0.039367 0.023906
v -0.147794 -0.000923 -0.020933
v -0.138754 0.000573 0.011987
v -0.130993 0.001365 0.020878
v -0.141233 -0.043656 -0.018858
v -0.129939 -0.041768 0.002244
v -0.124500 -0.040860 0.011520
v 0.129557 0.001591 0.093600
v -0.086285 -0.034474 0.046997
v -0.085912 0.002259 0.049813
v -0.086323 0.038706 0.052034
v -0.083875 0.080095 0.059296
v -0.080254 0.132046 0.072925
v -0.075481 0.165479 0.088403
v -0.069859 0.186122 0.103688
v -0.063842 0.196677 0.116808
v -0.027042 0.200540 0.162858
v -0.012303 0.204139 0.168780
v 0.011303 0.209125 0.175045
v 0.030914 0.212156 0.178243
v 0.055186 0.189496 0.163164
v -0.038844 -0.026548 0.074559
v -0.040668 0.006198 0.078941
v 0.002248 0.045854 0.106918
v 0.007174 0.012336 0.103433
v -0.002824 0.081343 0.115794
v -0.010672 0.132629 0.130830
v -0.014318 0.160823 0.142526
v -0.016849 0.178977 0.151562
v -0.043731 0.041090 0.081292
v -0.046811 0.080385 0.086400
v -0.049525 0.132038 0.099978
v -0.047658 0.163685 0.116664
v -0.045007 0.181254 0.129552
v 0.044900 0.082169 0.119448
v 0.033092 0.132408 0.134672
v 0.024561 0.162892 0.147624
v 0.019200 0.182680 0.158104
v 0.079307 0.081010 0.119443
v 0.068290 0.129126 0.134226
v 0.061423 0.159248 0.146537
v 0.051296 0.214430 0.179640
v 0.145195 0.019275 -0.034909
v 0.140989 0.046298 -0.036649
v 0.150044 0.005013 -0.031633
v 0.133788 0.086141 -0.037301
v 0.125698 0.127240 -0.038738
v 0.119881 0.164859 -0.040501
v 0.111645 0.211552 -0.043193
v 0.102024 0.255108 -0.044410
v 0.083999 0.282654 -0.051841
v 0.052751 0.299083 -0.058096
v 0.016516 0.299727 -0.067278
v -0.019183 0.292022 -0.075947
v -0.055387 0.276436 -0.088633
v -0.088030 0.247567 -0.094973
v -0.105698 0.218659 -0.097103
v -0.118967 0.186603 -0.099684
v -0.126922 0.159724 -0.099944
v -0.134479 0.126702 -0.100038
v -0.142276 0.078891 -0.103698
v -0.145966 0.037678 -0.104063
v -0.147794 -0.000923 -0.103834
v -0.152136 -0.045477 -0.104800
v 0.011847 -0.018078 0.095267
v 0.056987 -0.010535 0.098626
v 0.054747 0.017875 0.109891
v 0.050854 0.048061 0.112580
v 0.093997 -0.004351 0.098887
v 0.088889 0.019904 0.109818
v 0.084761 0.047921 0.113327
v 0.078388 0.215815 0.171993
v 0.068580 0.230093 0.185568
v 0.070655 0.236255 0.182187
v 0.083297 0.219281 0.167512
v 0.087481 0.234256 0.135237
v 0.093247 -0.004476 0.036456
v 0.036641 -0.013934 0.023201
v -0.048833 -0.028215 0.003188
v -0.001047 -0.020232 -0.068216
v 0.082139 -0.006333 -0.048075
v -0.079746 -0.033381 -0.087272
v 0.129495 0.005987 0.095159
v -0.135678 -0.034612 0.007940
v -0.039300 -0.018372 0.079408
v 0.056522 -0.004641 0.104930
v -0.086194 -0.025560 0.051471
v 0.010655 -0.010321 0.103013
v 0.092866 0.001017 0.105203
v -0.129654 -0.033424 0.017605
vn 0.9788 0.1653 0.1209
vn 0.9170 0.0410 0.3967
vn 0.9654 0.2137 0.1497
vn 0.8883 0.0205 0.4588
vn 0.9106 0.0989 0.4014
vn 0.9765 0.1845 0.1114
vn 0.9124 0.1031 0.3960
vn 0.9801 0.1722 0.0985
vn 0.9448 0.1199 0.3049
vn 0.9812 0.1679 0.0952
vn 0.9262 0.0757 0.3694
vn 0.9763 0.1956 0.0926
vn 0.9277 0.0799 0.3647
vn 0.9144 0.3949 0.0890
vn 0.9114 0.3515 0.2142
vn 0.6633 0.7186 0.2088
vn 0.6738 0.6574 0.3374
vn 0.6633 0.7449 0.0720
vn 0.1810 0.9601 0.2132
vn 0.1531 0.9100 0.3853
vn 0.4300 0.7602 0.4870
vn 0.1023 0.8520 0.5135
vn 0.2326 0.9697 0.0745
vn -0.1676 0.9633 0.2097
vn -0.1926 0.9088 0.3703
vn -0.1461 0.8639 0.4820
vn -0.2467 0.8542 0.4576
vn -0.2996 0.8839 0.3592
vn -0.3158 0.8418 0.4378
vn -0.3008 0.9300 0.2113
vn -0.4183 0.8425 0.3393
vn -0.4699 0.8602 0.1980
vn -0.3169 0.9459 0.0694
vn -0.5404 0.8399 0.0500
vn -0.6291 0.4351 0.6441
vn -0.6924 0.6394 0.3343
vn -0.7419 0.6468 0.1768
vn -0.7736 0.6312 0.0562
vn -0.1149 0.9905 0.0757
vn -0.8505 0.2478 0.4640
vn -0.8960 0.2830 0.3423
vn -0.8991 0.3959 0.1868
vn -0.8928 0.4442 0.0754
vn -0.9299 0.2448 0.2747
vn -0.9406 0.3301 0.0791
vn -0.9371 0.1841 0.2965
vn -0.9654 0.2459 0.0870
vn -0.8235 -0.1471 0.5479
vn -0.6137 -0.1430 0.7765
vn -0.8621 -0.0217 0.5062
vn -0.8596 -0.0940 0.5023
vn -0.8252 -0.0135 0.5647
vn 0.8624 -0.0069 0.5062
vn 0.8191 0.0542 0.5710
vn 0.8146 0.0377 0.5788
vn 0.8926 0.0631 0.4463
vn 0.8270 -0.0407 0.5607
vn 0.8471 -0.0536 0.5287
vn 0.3323 0.2552 0.9080
vn -0.0068 0.2541 0.9672
vn 0.3458 0.2744 0.8973
vn -0.1814 0.2278 0.9567
vn 0.0148 0.2435 0.9698
vn -0.2641 0.3236 0.9086
vn -0.1789 0.2419 0.9537
vn -0.4130 0.2716 0.8693
vn -0.2565 0.3479 0.9018
vn -0.4187 0.2515 0.8726
vn -0.7631 -0.0345 0.6453
vn -0.9224 0.0881 0.3762
vn -0.9777 0.1773 0.1127
vn -0.7045 -0.0393 0.7086
vn -0.8996 0.0585 0.4329
vn -0.9843 0.1210 0.1285
vn -0.6495 -0.0191 0.7601
vn -0.8771 0.0380 0.4787
vn -0.9899 0.0655 0.1258
vn -0.6627 -0.0448 0.7475
vn -0.8848 -0.0459 0.4636
vn -0.9880 -0.0260 0.1521
vn -0.7302 -0.1150 0.6735
vn -0.5529 -0.7432 0.3767
vn -0.5484 -0.7374 0.3944
vn -0.5612 -0.7420 0.3667
vn 0.7697 -0.1065 0.6294
vn 0.7072 -0.2274 0.6694
vn -0.5101 -0.1895 0.8390
vn -0.5382 -0.0015 0.8428
vn -0.5595 -0.0808 0.8249
vn -0.5931 -0.1272 0.7950
vn -0.6557 -0.1887 0.7311
vn -0.7088 -0.2427 0.6624
vn -0.7382 -0.2879 0.6100
vn -0.7405 -0.3301 0.5854
vn -0.4703 -0.4336 0.7686
vn -0.2026 -0.4587 0.8652
vn -0.2788 -0.4230 0.8622
vn -0.0979 -0.4890 0.8668
vn -0.1162 -0.4420 0.8895
vn -0.0643 -0.4192 0.9056
vn -0.0407 -0.4887 0.8715
vn -0.0555 -0.4438 0.8944
vn 0.1083 -0.4990 0.8598
vn -0.0629 -0.5157 0.8544
vn -0.4111 -0.2648 0.8723
vn -0.4929 -0.0560 0.8683
vn -0.6523 -0.4066 0.6396
vn -0.3561 -0.4303 0.8295
vn -0.3318 -0.5183 0.7882
vn -0.6434 -0.3528 0.6794
vn -0.3554 -0.3577 0.8636
vn -0.6178 -0.2809 0.7344
vn -0.3201 -0.2850 0.9035
vn -0.5572 -0.1952 0.8071
vn -0.3017 -0.1914 0.9340
vn -0.5148 -0.1266 0.8479
vn -0.0477 -0.3490 0.9359
vn -0.2765 -0.1069 0.9551
vn -0.0442 -0.2584 0.9650
vn 0.1553 -0.2976 0.9420
vn 0.1310 -0.4188 0.8986
vn 0.0216 -0.4429 0.8963
vn -0.0607 -0.4165 0.9071
vn 0.1004 -0.5090 0.8549
vn -0.8929 0.4503 -0.0000
vn 0.9484 0.3172 0.0009
vn 0.9386 0.2894 0.1876
vn 0.9807 0.1953 -0.0000
vn -0.9674 0.2534 -0.0000
vn -0.9974 0.0723 -0.0000
vn 0.9850 0.1725 -0.0000
vn -0.9432 0.3322 -0.0000
vn 0.9861 0.1661 -0.0000
vn 0.9730 0.2309 -0.0000
vn -0.9923 0.1242 -0.0000
vn 0.9865 0.1636 -0.0000
vn -0.7729 0.6346 -0.0000
vn -0.5562 0.8310 -0.0000
vn -0.3203 0.9473 -0.0000
vn -0.9815 0.1914 -0.0000
vn 0.9826 0.1856 -0.0000
vn -0.1149 0.9934 -0.0000
vn -0.9990 0.0227 0.0397
vn -0.9731 -0.1405 0.1825
vn 0.9159 0.4013 0.0009
vn 0.2179 0.9760 -0.0000
vn 0.6479 0.7617 0.0015
vn -0.0879 -0.7013 0.7074
vn -0.3375 -0.4899 0.8038
vn -0.0363 -0.1931 0.9805
vn -0.0546 -0.1604 0.9855
vn -0.0640 -0.1529 0.9862
vn 0.1454 -0.1522 0.9776
vn 0.1309 -0.1282 0.9831
vn 0.1410 -0.2013 0.9693
vn 0.2807 -0.1371 0.9500
vn 0.1824 -0.4784 0.8590
vn 0.2472 -0.2820 0.9270
vn 0.2735 -0.1054 0.9561
vn 0.2669 -0.1435 0.9530
vn 0.3023 -0.2102 0.9297
vn 0.3053 -0.3364 0.8909
vn 0.2407 -0.4628 0.8532
vn 0.2422 -0.5177 0.8206
vn 0.1815 -0.5169 0.8366
vn 0.6807 0.1329 0.7204
vn 0.8646 0.1190 0.4881
vn 0.7235 -0.0979 0.6833
vn 0.7062 0.1427 0.6935
vn 0.9174 0.3015 0.2596
vn 0.7438 0.5423 0.3907
vn 0.1648 -0.9863 -0.0000
vn 0.1647 -0.9863 -0.0000
vn 0.1648 -0.9863 -0.0001
vn -0.4715 -0.7138 0.5179
vn -0.4767 -0.4139 0.7755
vn -0.2441 -0.0451 0.9687
vn -0.4802 -0.7365 0.4764
vn 0.0893 -0.7261 0.6818
vn 0.1959 -0.7156 0.6705
vn -0.0566 -0.7116 0.7003
vn 0.0873 -0.7225 0.6858
vn -0.9172 -0.1315 0.3762
vn -0.9977 0.0682 -0.0000
vn 0.1921 -0.3256 0.9258
vt 0.184413 0.557686
vt 0.255118 0.583479
vt 0.196027 0.600636
vt 0.252967 0.606302
vt 0.259758 0.551165
vt 0.182055 0.490009
vt 0.273120 0.500505
vt 0.191573 0.418921
vt 0.289850 0.451591
vt 0.209734 0.357041
vt 0.317904 0.410395
vt 0.243313 0.291275
vt 0.354133 0.374376
vt 0.295633 0.242057
vt 0.345661 0.313877
vt 0.368102 0.291171
vt 0.381425 0.323711
vt 0.335866 0.209495
vt 0.397567 0.281359
vt 0.402179 0.318409
vt 0.398430 0.351946
vt 0.406016 0.351002
vt 0.387085 0.188906
vt 0.427867 0.276700
vt 0.421698 0.317565
vt 0.415366 0.351260
vt 0.426589 0.352725
vt 0.441204 0.319935
vt 0.437831 0.354287
vt 0.461850 0.277641
vt 0.461808 0.325069
vt 0.496772 0.287027
vt 0.505362 0.180322
vt 0.574521 0.194906
vt 0.453608 0.355424
vt 0.491383 0.339081
vt 0.535845 0.307868
vt 0.639188 0.240725
vt 0.444227 0.177107
vt 0.493064 0.354268
vt 0.520200 0.353268
vt 0.572259 0.342678
vt 0.677561 0.290487
vt 0.583361 0.369463
vt 0.709946 0.346439
vt 0.630955 0.410250
vt 0.726879 0.398000
vt 0.494542 0.361132
vt 0.452345 0.360909
vt 0.565366 0.378481
vt 0.520041 0.362854
vt 0.603152 0.410796
vt 0.263692 0.581857
vt 0.267973 0.551449
vt 0.281191 0.503815
vt 0.298491 0.454527
vt 0.323014 0.414874
vt 0.358081 0.379889
vt 0.406388 0.354379
vt 0.398728 0.354970
vt 0.414906 0.355714
vt 0.436664 0.359673
vt 0.425504 0.357778
vt 0.633225 0.462812
vt 0.652278 0.464432
vt 0.739083 0.463081
vt 0.649695 0.547914
vt 0.669844 0.549284
vt 0.749030 0.556942
vt 0.651944 0.616351
vt 0.671656 0.621418
vt 0.739649 0.637888
vt 0.643186 0.678379
vt 0.661304 0.685392
vt 0.717463 0.710131
vt 0.628034 0.730011
vt 0.637393 0.756598
vt 0.643222 0.739239
vt 0.672262 0.780750
vt 0.263222 0.600015
vt 0.262733 0.605260
vt 0.552322 0.699275
vt 0.562698 0.658365
vt 0.572187 0.603700
vt 0.571385 0.540404
vt 0.558837 0.464363
vt 0.538539 0.419973
vt 0.518331 0.396233
vt 0.502333 0.385773
vt 0.450669 0.382956
vt 0.439038 0.381064
vt 0.422042 0.377192
vt 0.409112 0.373923
vt 0.409901 0.420456
vt 0.387630 0.389324
vt 0.415944 0.400734
vt 0.476000 0.670816
vt 0.486306 0.636106
vt 0.481298 0.402596
vt 0.448115 0.423071
vt 0.447498 0.403693
vt 0.492243 0.422942
vt 0.447089 0.455883
vt 0.505199 0.462902
vt 0.437571 0.520235
vt 0.506289 0.532615
vt 0.428202 0.567573
vt 0.498151 0.587303
vt 0.397968 0.453539
vt 0.415755 0.611015
vt 0.377472 0.513295
vt 0.357675 0.450513
vt 0.373364 0.417918
vt 0.396686 0.369520
vt 0.842975 0.196765
vt 0.049038 0.690219
vt 0.206382 0.622553
vt 0.115903 0.167570
vt 0.910513 0.348202
vt 0.897145 0.777907
vt 0.014663 0.371902
vt 0.887491 0.278903
vt 0.008046 0.591378
vt 0.029512 0.658935
vt 0.941059 0.569430
vt 0.046484 0.276246
vt 0.789034 0.122864
vt 0.692289 0.044002
vt 0.578870 0.011049
vt 0.928673 0.436105
vt 0.000097 0.483041
vt 0.476253 0.000097
vt 0.848052 0.891636
vt 0.210578 0.093164
vt 0.375669 0.014232
vt 0.284736 0.043714
vt 0.403247 0.653804
vt 0.475062 0.684801
vt 0.348395 0.623115
vt 0.355123 0.593901
vt 0.365148 0.556102
vt 0.313432 0.585082
vt 0.322218 0.550667
vt 0.334121 0.508825
vt 0.305298 0.607521
vt 0.379277 0.363560
vt 0.390756 0.357504
vt 0.389592 0.353798
vt 0.375441 0.359964
vt 0.361495 0.339483
vt 0.253952 0.695381
vt 0.162094 0.874371
vt 0.301223 0.616591
vt 0.345498 0.634109
vt 0.340271 0.761450
vt 0.552737 0.714535
vt 0.507348 0.809221
vt 0.623368 0.745832
vt 0.398364 0.999903
vt 0.647017 0.999903
vt 0.405990 0.639424
vt 0.924291 0.678714
s 1
f 3/1/1 2/2/2 1/3/3
f 6/4/4 1/3/3 2/2/2
f 4/5/5 7/6/6 8/7/7
f 8/7/7 9/8/8 10/9/9
f 10/9/9 11/10/10 12/11/11
f 12/11/11 13/12/12 14/13/13
f 15/14/14 16/15/15 13/12/12
f 14/13/13 13/12/12 16/15/15
f 15/14/14 18/16/16 16/15/15
f 18/16/16 19/17/17 16/15/15
f 17/18/18 22/19/19 18/16/16
f 18/16/16 23/20/20 19/17/17
f 20/21/21 23/20/20 24/22/22
f 21/23/23 26/24/24 22/19/19
f 22/19/19 27/25/25 23/20/20
f 23/20/20 28/26/26 24/22/22
f 27/25/25 32/27/27 28/26/26
f 26/24/24 31/28/28 27/25/25
f 31/28/28 36/29/29 32/27/27
f 30/30/30 35/31/31 31/28/28
f 34/32/32 29/33/33 33/34/34
f 35/31/31 40/35/35 36/29/29
f 34/32/32 39/36/36 35/31/31
f 38/37/37 33/34/34 37/38/38
f 25/39/39 30/30/30 26/24/24
f 39/36/36 44/40/40 40/35/35
f 44/40/40 39/36/36 43/41/41
f 38/37/37 43/41/41 39/36/36
f 42/42/42 37/38/38 41/43/43
f 43/41/41 42/42/42 45/44/44
f 45/44/44 41/43/43 46/45/45
f 48/46/46 46/45/45 47/47/47
f 40/35/35 52/48/48 53/49/49
f 43/41/41 52/48/48 44/40/40
f 43/41/41 50/50/50 51/51/51
f 49/52/52 45/44/44 48/46/46
f 64/53/53 4/5/5 63/54/54
f 63/54/54 8/7/7 62/55/55
f 61/56/56 8/7/7 10/9/9
f 61/56/56 12/11/11 60/57/57
f 59/58/58 12/11/11 14/13/13
f 20/21/59 57/59/60 58/60/61
f 28/26/62 57/59/60 24/22/63
f 32/27/64 56/61/65 28/26/62
f 32/27/64 54/62/66 55/63/67
f 36/29/68 53/49/49 54/62/66
f 48/46/46 67/64/69 49/52/52
f 66/65/70 47/47/47 65/66/71
f 66/65/70 70/67/72 67/64/69
f 69/68/73 65/66/71 68/69/74
f 69/68/73 73/70/75 70/67/72
f 72/71/76 68/69/74 71/72/77
f 72/71/76 76/73/78 73/70/75
f 75/74/79 71/72/77 74/75/80
f 75/74/79 162/76/81 76/73/78
f 78/77/82 156/78/83 77/79/84
f 6/4/4 155/80/85 80/81/86
f 76/73/78 159/82/87 82/83/88
f 73/70/75 82/83/88 83/84/89
f 70/67/72 83/84/89 84/85/90
f 67/64/69 84/85/90 85/86/91
f 49/52/52 85/86/91 86/87/92
f 50/50/50 86/87/92 87/88/93
f 51/51/51 87/88/93 88/89/94
f 52/48/48 51/51/51 88/89/94
f 52/48/48 89/90/95 53/49/49
f 53/49/49 90/91/96 54/62/97
f 54/62/97 91/92/98 55/63/99
f 56/61/100 91/92/98 92/93/101
f 109/94/102 93/95/103 110/96/104
f 82/83/88 157/97/105 95/98/106
f 106/99/107 88/89/94 87/88/93
f 88/89/94 106/99/107 89/90/95
f 106/99/107 100/100/108 101/101/109
f 105/102/110 99/103/111 100/100/108
f 104/104/112 98/105/113 99/103/111
f 103/106/114 96/107/115 98/105/113
f 83/84/89 95/98/106 102/108/116
f 84/85/90 102/108/116 103/106/114
f 85/86/91 103/106/114 104/104/112
f 86/87/92 104/104/112 105/102/110
f 87/88/93 105/102/110 106/99/107
f 89/90/95 101/101/109 90/91/96
f 106/99/107 101/101/109 89/90/95
f 90/91/96 110/96/104 91/92/98
f 100/100/108 110/96/104 101/101/109
f 99/103/111 109/94/102 100/100/108
f 98/105/113 108/109/117 99/103/111
f 97/110/118 102/108/116 95/98/106
f 107/111/119 112/112/120 108/109/117
f 108/109/117 113/113/121 109/94/102
f 58/60/122 57/59/123 92/93/101
f 91/92/98 110/96/104 92/93/101
f 58/60/122 92/93/101 114/114/124
f 129/115/125 46/45/45 41/43/43
f 117/116/126 1/3/3 5/117/127
f 121/118/128 15/14/14 13/12/12
f 131/119/129 65/66/71 47/47/47
f 71/72/77 135/120/130 74/75/80
f 119/121/131 11/10/10 9/8/8
f 130/122/132 47/47/47 46/45/45
f 116/123/133 7/6/6 3/1/1
f 115/124/134 3/1/1 1/3/3
f 133/125/135 71/72/77 68/69/74
f 120/126/136 13/12/12 11/10/10
f 128/127/137 41/43/43 37/38/38
f 127/128/138 37/38/38 33/34/34
f 126/129/139 33/34/34 29/33/33
f 132/130/140 68/69/74 65/66/71
f 118/131/141 9/8/8 7/6/6
f 125/132/142 29/33/33 25/39/39
f 74/75/80 136/133/143 77/79/144
f 122/134/145 17/18/18 15/14/14
f 124/135/146 25/39/39 21/23/23
f 123/136/147 21/23/23 17/18/18
f 137/137/148 157/97/105 94/138/149
f 97/110/118 158/139/150 139/140/151
f 140/141/152 97/110/118 139/140/151
f 96/107/115 107/111/119 98/105/113
f 158/139/150 142/142/153 139/140/151
f 139/140/151 143/143/154 140/141/152
f 111/144/155 140/141/152 143/143/154
f 64/53/156 161/145/157 155/80/158
f 63/54/159 142/142/153 64/53/156
f 62/55/160 143/143/154 63/54/159
f 61/56/161 111/144/155 62/55/160
f 60/57/162 112/112/120 61/56/161
f 57/59/123 56/61/100 92/93/101
f 93/95/103 92/93/101 110/96/104
f 59/58/163 113/113/121 60/57/162
f 93/95/103 144/146/164 114/114/124
f 58/60/122 114/114/124 145/147/165
f 58/60/61 146/148/166 20/21/59
f 147/149/167 59/58/58 14/13/13
f 144/146/168 146/148/166 145/147/169
f 16/15/15 148/150/170 14/13/13
f 16/15/15 19/17/17 148/150/170
f 20/21/21 146/148/171 19/17/17
f 148/150/170 147/149/167 14/13/13
f 146/148/171 148/150/170 19/17/17
f 114/114/124 144/146/164 145/147/165
f 117/116/172 149/151/172 153/152/172
f 6/4/173 80/81/173 149/151/172
f 80/81/173 141/153/172 149/151/172
f 149/151/172 5/117/172 6/4/173
f 141/153/172 138/154/172 149/151/172
f 138/154/172 137/137/172 150/155/172
f 137/137/172 94/138/172 150/155/172
f 94/138/172 81/156/172 151/157/172
f 81/156/172 79/158/174 151/157/172
f 79/158/174 78/77/172 151/157/172
f 94/138/172 151/157/172 150/155/172
f 138/154/172 150/155/172 149/151/172
f 149/151/172 117/116/172 5/117/172
f 150/155/172 151/157/172 152/159/172
f 151/157/172 154/160/172 152/159/172
f 149/151/172 150/155/172 153/152/172
f 150/155/172 152/159/172 153/152/172
f 154/160/172 77/79/172 136/133/172
f 77/79/172 154/160/172 151/157/172
f 78/77/172 77/79/172 151/157/172
f 155/80/85 2/2/2 64/53/53
f 159/82/87 94/138/149 157/97/105
f 162/76/175 81/156/176 159/82/87
f 160/161/177 95/98/106 157/97/105
f 156/78/83 79/158/178 162/76/175
f 158/139/179 141/153/180 161/145/157
f 141/153/180 155/80/158 161/145/157
f 160/161/181 138/154/182 158/139/179
f 156/78/183 74/75/80 77/79/144
f 3/1/1 4/5/5 2/2/2
f 6/4/4 5/117/127 1/3/3
f 4/5/5 3/1/1 7/6/6
f 8/7/7 7/6/6 9/8/8
f 10/9/9 9/8/8 11/10/10
f 12/11/11 11/10/10 13/12/12
f 15/14/14 17/18/18 18/16/16
f 17/18/18 21/23/23 22/19/19
f 18/16/16 22/19/19 23/20/20
f 20/21/21 19/17/17 23/20/20
f 21/23/23 25/39/39 26/24/24
f 22/19/19 26/24/24 27/25/25
f 23/20/20 27/25/25 28/26/26
f 27/25/25 31/28/28 32/27/27
f 26/24/24 30/30/30 31/28/28
f 31/28/28 35/31/31 36/29/29
f 30/30/30 34/32/32 35/31/31
f 34/32/32 30/30/30 29/33/33
f 35/31/31 39/36/36 40/35/35
f 34/32/32 38/37/37 39/36/36
f 38/37/37 34/32/32 33/34/34
f 25/39/39 29/33/33 30/30/30
f 38/37/37 42/42/42 43/41/41
f 42/42/42 38/37/37 37/38/38
f 45/44/44 42/42/42 41/43/43
f 48/46/46 45/44/44 46/45/45
f 40/35/35 44/40/40 52/48/48
f 43/41/41 51/51/51 52/48/48
f 43/41/41 45/44/44 50/50/50
f 49/52/52 50/50/50 45/44/44
f 64/53/53 2/2/2 4/5/5
f 63/54/54 4/5/5 8/7/7
f 61/56/56 62/55/55 8/7/7
f 61/56/56 10/9/9 12/11/11
f 59/58/58 60/57/57 12/11/11
f 20/21/59 24/22/63 57/59/60
f 28/26/62 56/61/65 57/59/60
f 32/27/64 55/63/67 56/61/65
f 32/27/64 36/29/68 54/62/66
f 36/29/68 40/35/35 53/49/49
f 48/46/46 66/65/70 67/64/69
f 66/65/70 48/46/46 47/47/47
f 66/65/70 69/68/73 70/67/72
f 69/68/73 66/65/70 65/66/71
f 69/68/73 72/71/76 73/70/75
f 72/71/76 69/68/73 68/69/74
f 72/71/76 75/74/79 76/73/78
f 75/74/79 72/71/76 71/72/77
f 75/74/79 156/78/183 162/76/81
f 76/73/78 162/76/81 159/82/87
f 73/70/75 76/73/78 82/83/88
f 70/67/72 73/70/75 83/84/89
f 67/64/69 70/67/72 84/85/90
f 49/52/52 67/64/69 85/86/91
f 50/50/50 49/52/52 86/87/92
f 51/51/51 50/50/50 87/88/93
f 52/48/48 88/89/94 89/90/95
f 53/49/49 89/90/95 90/91/96
f 54/62/97 90/91/96 91/92/98
f 56/61/100 55/63/99 91/92/98
f 109/94/102 113/113/121 93/95/103
f 82/83/88 159/82/87 157/97/105
f 106/99/107 105/102/110 100/100/108
f 105/102/110 104/104/112 99/103/111
f 104/104/112 103/106/114 98/105/113
f 103/106/114 102/108/116 96/107/115
f 83/84/89 82/83/88 95/98/106
f 84/85/90 83/84/89 102/108/116
f 85/86/91 84/85/90 103/106/114
f 86/87/92 85/86/91 104/104/112
f 87/88/93 86/87/92 105/102/110
f 90/91/96 101/101/109 110/96/104
f 100/100/108 109/94/102 110/96/104
f 99/103/111 108/109/117 109/94/102
f 98/105/113 107/111/119 108/109/117
f 97/110/118 96/107/115 102/108/116
f 107/111/119 111/144/155 112/112/120
f 108/109/117 112/112/120 113/113/121
f 129/115/125 130/122/132 46/45/45
f 117/116/126 115/124/134 1/3/3
f 121/118/128 122/134/145 15/14/14
f 131/119/129 132/130/140 65/66/71
f 71/72/77 134/162/184 135/120/130
f 119/121/131 120/126/136 11/10/10
f 130/122/132 131/119/129 47/47/47
f 116/123/133 118/131/141 7/6/6
f 115/124/134 116/123/133 3/1/1
f 133/125/135 134/162/184 71/72/77
f 120/126/136 121/118/128 13/12/12
f 128/127/137 129/115/125 41/43/43
f 127/128/138 128/127/137 37/38/38
f 126/129/139 127/128/138 33/34/34
f 132/130/140 133/125/135 68/69/74
f 118/131/141 119/121/131 9/8/8
f 125/132/142 126/129/139 29/33/33
f 74/75/80 135/120/130 136/133/143
f 122/134/145 123/136/147 17/18/18
f 124/135/146 125/132/142 25/39/39
f 123/136/147 124/135/146 21/23/23
f 137/137/148 160/161/181 157/97/105
f 97/110/118 160/161/177 158/139/150
f 140/141/152 96/107/115 97/110/118
f 96/107/115 140/141/152 107/111/119
f 158/139/150 161/145/157 142/142/153
f 139/140/151 142/142/153 143/143/154
f 111/144/155 107/111/119 140/141/152
f 64/53/156 142/142/153 161/145/157
f 63/54/159 143/143/154 142/142/153
f 62/55/160 111/144/155 143/143/154
f 61/56/161 112/112/120 111/144/155
f 60/57/162 113/113/121 112/112/120
f 93/95/103 114/114/124 92/93/101
f 59/58/163 93/95/103 113/113/121
f 93/95/103 59/58/163 144/146/164
f 58/60/61 145/147/169 146/148/166
f 147/149/167 144/146/168 59/58/58
f 144/146/168 147/149/167 146/148/166
f 146/148/171 147/149/167 148/150/170
f 155/80/85 6/4/4 2/2/2
f 159/82/87 81/156/176 94/138/149
f 162/76/175 79/158/178 81/156/176
f 160/161/177 97/110/118 95/98/106
f 156/78/83 78/77/82 79/158/178
f 158/139/179 138/154/182 141/153/180
f 141/153/180 80/81/185 155/80/158
f 160/161/181 137/137/148 138/154/182
f 156/78/183 75/74/79 74/75/80
