# Blender 4.2.1 LTS
# www.blender.org
o Right_Trigger
v -0.145195 0.019275 0.047993
v -0.132789 0.020724 0.092062
v -0.140989 0.046298 0.046252
v -0.128848 0.045571 0.096407
v -0.149312 0.004892 0.049583
v -0.135411 0.002568 0.087747
v -0.133788 0.086141 0.045600
v -0.121328 0.083347 0.103662
v -0.125698 0.127240 0.044163
v -0.114059 0.120144 0.110568
v -0.119881 0.164859 0.042400
v -0.105206 0.155820 0.125364
v -0.111645 0.211552 0.039709
v -0.092851 0.194662 0.149952
v -0.102024 0.255108 0.038492
v -0.091325 0.248011 0.105591
v -0.083999 0.282332 0.031061
v -0.076800 0.274759 0.100140
v -0.072768 0.264539 0.139038
v -0.056287 0.244406 0.189733
v -0.052751 0.299083 0.024806
v -0.048964 0.289650 0.099131
v -0.046416 0.277327 0.142077
v -0.041316 0.248472 0.190973
v -0.016516 0.299727 0.015624
v -0.018340 0.287789 0.093265
v -0.019711 0.274362 0.139283
v -0.023379 0.248507 0.188678
v 0.019183 0.292022 0.006954
v 0.013148 0.281252 0.085389
v 0.005567 0.268857 0.135316
v -0.003499 0.245559 0.184628
v 0.055387 0.276436 -0.005732
v 0.043882 0.271036 0.078158
v 0.030579 0.261045 0.129357
v 0.015100 0.242533 0.179183
v 0.088030 0.247567 -0.012072
v 0.074379 0.250583 0.068687
v 0.062656 0.245113 0.119345
v 0.037948 0.238502 0.167257
v 0.105698 0.218659 -0.014201
v 0.094344 0.217690 0.058986
v 0.080475 0.223550 0.101096
v 0.068247 0.229938 0.125428
v 0.101042 0.197803 0.059636
v 0.118967 0.186603 -0.016783
v 0.126922 0.159724 -0.017043
v 0.116528 0.164650 0.037120
v 0.108349 0.166959 0.053472
v 0.096031 0.194137 0.073278
v 0.080091 0.214994 0.103262
v 0.068445 0.221998 0.125551
v 0.035991 0.230626 0.169489
v 0.014002 0.233953 0.182312
v -0.004550 0.237244 0.188135
v -0.023729 0.240549 0.190593
v -0.039940 0.242099 0.192594
v -0.054974 0.238746 0.191911
v -0.089858 0.190124 0.154526
v -0.102354 0.152530 0.129332
v -0.111207 0.118647 0.116749
v -0.117870 0.081095 0.108676
v -0.125304 0.045133 0.101541
v -0.129281 0.021148 0.098142
v 0.134479 0.126702 -0.017136
v 0.123949 0.129989 0.029730
v 0.117550 0.131399 0.039515
v 0.142276 0.078891 -0.020797
v 0.130772 0.079865 0.020169
v 0.123702 0.079627 0.029744
v 0.145966 0.037678 -0.021162
v 0.136589 0.038763 0.015180
v 0.128335 0.039367 0.023906
v 0.147794 -0.000923 -0.020933
v 0.138754 0.000573 0.011987
v 0.130993 0.001365 0.020878
v 0.141233 -0.043656 -0.018858
v 0.129939 -0.041768 0.002244
v 0.124500 -0.040860 0.011520
v -0.129557 0.001591 0.093600
v 0.086285 -0.034474 0.046997
v 0.085912 0.002259 0.049813
v 0.086323 0.038706 0.052034
v 0.083875 0.080095 0.059296
v 0.080254 0.132046 0.072925
v 0.075481 0.165479 0.088403
v 0.069859 0.186122 0.103688
v 0.063842 0.196677 0.116808
v 0.027042 0.200540 0.162858
v 0.012303 0.204139 0.168780
v -0.011303 0.209125 0.175045
v -0.030914 0.212156 0.178243
v -0.055186 0.189496 0.163164
v 0.038844 -0.026548 0.074559
v 0.040668 0.006198 0.078941
v -0.002248 0.045854 0.106918
v -0.007174 0.012336 0.103433
v 0.002824 0.081343 0.115794
v 0.010672 0.132629 0.130830
v 0.014318 0.160823 0.142526
v 0.016849 0.178977 0.151562
v 0.043731 0.041090 0.081292
v 0.046811 0.080385 0.086400
v 0.049525 0.132038 0.099978
v 0.047658 0.163685 0.116664
v 0.045007 0.181254 0.129552
v -0.044900 0.082169 0.119448
v -0.033092 0.132408 0.134672
v -0.024561 0.162892 0.147624
v -0.019200 0.182680 0.158104
v -0.079307 0.081010 0.119443
v -0.068290 0.129126 0.134226
v -0.061423 0.159248 0.146537
v -0.051296 0.214430 0.179640
v -0.145195 0.019275 -0.034909
v -0.140989 0.046298 -0.036649
v -0.150044 0.005013 -0.031633
v -0.133788 0.086141 -0.037301
v -0.125698 0.127240 -0.038738
v -0.119881 0.164859 -0.040501
v -0.111645 0.211552 -0.043193
v -0.102024 0.255108 -0.044410
v -0.083999 0.282654 -0.051841
v -0.052751 0.299083 -0.058096
v -0.016516 0.299727 -0.067278
v 0.019183 0.292022 -0.075947
v 0.055387 0.276436 -0.088633
v 0.088030 0.247567 -0.094973
v 0.105698 0.218659 -0.097103
v 0.118967 0.186603 -0.099684
v 0.126922 0.159724 -0.099944
v 0.134479 0.126702 -0.100038
v 0.142276 0.078891 -0.103698
v 0.145966 0.037678 -0.104063
v 0.147794 -0.000923 -0.103834
v 0.152136 -0.045477 -0.104800
v -0.011847 -0.018078 0.095267
v -0.056987 -0.010535 0.098626
v -0.054747 0.017875 0.109891
v -0.050854 0.048061 0.112580
v -0.093997 -0.004351 0.098887
v -0.088889 0.019904 0.109818
v -0.084761 0.047921 0.113327
v -0.078388 0.215815 0.171993
v -0.068580 0.230093 0.185568
v -0.070655 0.236255 0.182187
v -0.083297 0.219281 0.167512
v -0.087481 0.234256 0.135237
v -0.093247 -0.004476 0.036456
v -0.036641 -0.013934 0.023201
v 0.048833 -0.028215 0.003188
v 0.001047 -0.020232 -0.068216
v -0.082139 -0.006333 -0.048074
v 0.079746 -0.033381 -0.087272
v -0.129495 0.005987 0.095159
v 0.135678 -0.034612 0.007940
v 0.039300 -0.018372 0.079408
v -0.056522 -0.004641 0.104930
v 0.086194 -0.025560 0.051471
v -0.010655 -0.010321 0.103013
v -0.092866 0.001017 0.105203
v 0.129654 -0.033424 0.017605
vn -0.9170 0.0410 0.3967
vn -0.9788 0.1653 0.1209
vn -0.9654 0.2137 0.1497
vn -0.8883 0.0205 0.4588
vn -0.9765 0.1845 0.1114
vn -0.9106 0.0989 0.4014
vn -0.9124 0.1031 0.3960
vn -0.9801 0.1722 0.0985
vn -0.9448 0.1199 0.3049
vn -0.9812 0.1679 0.0952
vn -0.9262 0.0757 0.3694
vn -0.9763 0.1956 0.0926
vn -0.9144 0.3949 0.0890
vn -0.9114 0.3515 0.2142
vn -0.9277 0.0799 0.3647
vn -0.6633 0.7186 0.2088
vn -0.6738 0.6574 0.3374
vn -0.1810 0.9601 0.2132
vn -0.6633 0.7449 0.0720
vn -0.1531 0.9100 0.3853
vn -0.4300 0.7602 0.4870
vn 0.1676 0.9633 0.2097
vn -0.2326 0.9697 0.0745
vn 0.1926 0.9088 0.3703
vn 0.1461 0.8639 0.4820
vn -0.1023 0.8520 0.5135
vn 0.2467 0.8542 0.4576
vn 0.2996 0.8839 0.3592
vn 0.3158 0.8418 0.4378
vn 0.4183 0.8425 0.3393
vn 0.3008 0.9300 0.2113
vn 0.4699 0.8602 0.1980
vn 0.3169 0.9459 0.0694
vn 0.6291 0.4351 0.6441
vn 0.6924 0.6394 0.3343
vn 0.7419 0.6468 0.1768
vn 0.5404 0.8399 0.0500
vn 0.1149 0.9905 0.0757
vn 0.8505 0.2478 0.4640
vn 0.8960 0.2830 0.3423
vn 0.8991 0.3959 0.1868
vn 0.7736 0.6312 0.0562
vn 0.9299 0.2448 0.2747
vn 0.8928 0.4442 0.0754
vn 0.9406 0.3301 0.0791
vn 0.9371 0.1841 0.2965
vn 0.8235 -0.1471 0.5479
vn 0.6137 -0.1430 0.7765
vn 0.8621 -0.0217 0.5062
vn 0.8252 -0.0135 0.5647
vn -0.8624 -0.0069 0.5062
vn -0.8191 0.0542 0.5710
vn -0.8146 0.0377 0.5788
vn -0.8927 0.0631 0.4463
vn -0.8270 -0.0407 0.5607
vn -0.8471 -0.0536 0.5287
vn -0.3323 0.2552 0.9080
vn 0.0068 0.2541 0.9672
vn -0.0148 0.2435 0.9698
vn 0.1814 0.2278 0.9567
vn 0.1789 0.2419 0.9537
vn 0.2641 0.3236 0.9086
vn 0.4130 0.2716 0.8693
vn 0.4187 0.2515 0.8726
vn 0.7631 -0.0345 0.6453
vn 0.9224 0.0881 0.3762
vn 0.9654 0.2459 0.0870
vn 0.7045 -0.0393 0.7086
vn 0.8996 0.0585 0.4329
vn 0.9777 0.1773 0.1127
vn 0.6495 -0.0191 0.7601
vn 0.8771 0.0380 0.4787
vn 0.9843 0.1210 0.1285
vn 0.6627 -0.0448 0.7475
vn 0.8848 -0.0459 0.4636
vn 0.9899 0.0655 0.1258
vn 0.7302 -0.1150 0.6735
vn 0.5529 -0.7432 0.3767
vn 0.5612 -0.7420 0.3667
vn 0.5484 -0.7374 0.3944
vn -0.7072 -0.2274 0.6694
vn -0.7697 -0.1065 0.6294
vn 0.5101 -0.1895 0.8390
vn 0.5382 -0.0015 0.8428
vn 0.5595 -0.0808 0.8249
vn 0.5931 -0.1272 0.7950
vn 0.6557 -0.1887 0.7311
vn 0.7088 -0.2427 0.6624
vn 0.8596 -0.0940 0.5023
vn 0.7382 -0.2879 0.6100
vn 0.7405 -0.3301 0.5854
vn 0.4703 -0.4336 0.7686
vn 0.2026 -0.4587 0.8652
vn 0.2788 -0.4230 0.8622
vn 0.0979 -0.4890 0.8668
vn 0.1162 -0.4420 0.8895
vn 0.0643 -0.4192 0.9056
vn -0.1083 -0.4990 0.8598
vn 0.0555 -0.4438 0.8944
vn 0.0629 -0.5157 0.8544
vn 0.4111 -0.2648 0.8723
vn 0.6523 -0.4066 0.6396
vn 0.3561 -0.4303 0.8295
vn 0.3318 -0.5183 0.7882
vn 0.3554 -0.3577 0.8636
vn 0.6434 -0.3528 0.6794
vn 0.3201 -0.2850 0.9035
vn 0.6178 -0.2809 0.7344
vn 0.3017 -0.1914 0.9340
vn 0.5572 -0.1952 0.8071
vn 0.4929 -0.0560 0.8683
vn 0.5148 -0.1266 0.8479
vn 0.0477 -0.3490 0.9359
vn 0.2765 -0.1069 0.9551
vn -0.1553 -0.2976 0.9420
vn 0.0442 -0.2584 0.9650
vn -0.1310 -0.4188 0.8986
vn -0.0216 -0.4429 0.8963
vn 0.0407 -0.4887 0.8715
vn 0.0607 -0.4165 0.9071
vn -0.1004 -0.5090 0.8549
vn 0.8929 0.4503 -0.0000
vn -0.9484 0.3172 0.0009
vn -0.9386 0.2894 0.1876
vn -0.9807 0.1953 -0.0000
vn 0.9674 0.2534 -0.0000
vn 0.9974 0.0723 -0.0000
vn 0.9977 0.0682 -0.0000
vn -0.9850 0.1725 -0.0000
vn 0.9432 0.3322 -0.0000
vn -0.9861 0.1661 -0.0000
vn -0.9730 0.2309 -0.0000
vn 0.9923 0.1242 -0.0000
vn -0.9865 0.1636 -0.0000
vn 0.7729 0.6346 -0.0000
vn 0.5562 0.8310 -0.0000
vn 0.3203 0.9473 -0.0000
vn 0.9815 0.1914 -0.0000
vn -0.9826 0.1856 -0.0000
vn 0.1149 0.9934 -0.0000
vn 0.9880 -0.0260 0.1521
vn 0.9990 0.0227 0.0397
vn -0.9159 0.4013 0.0009
vn -0.2179 0.9760 -0.0000
vn -0.6479 0.7617 0.0015
vn 0.0879 -0.7013 0.7074
vn 0.0566 -0.7116 0.7003
vn 0.0363 -0.1931 0.9805
vn 0.0546 -0.1604 0.9855
vn 0.0640 -0.1529 0.9862
vn -0.1454 -0.1522 0.9776
vn -0.1309 -0.1282 0.9831
vn -0.1410 -0.2013 0.9693
vn -0.2807 -0.1371 0.9500
vn -0.1824 -0.4784 0.8590
vn -0.2735 -0.1054 0.9561
vn -0.2669 -0.1435 0.9530
vn -0.3023 -0.2102 0.9297
vn -0.3053 -0.3364 0.8909
vn -0.2407 -0.4628 0.8532
vn -0.2422 -0.5177 0.8206
vn -0.1815 -0.5169 0.8366
vn -0.6807 0.1329 0.7204
vn -0.3458 0.2744 0.8973
vn -0.8646 0.1190 0.4881
vn -0.7235 -0.0979 0.6833
vn -0.9174 0.3015 0.2596
vn -0.7438 0.5423 0.3907
vn -0.1648 -0.9863 -0.0000
vn -0.1647 -0.9863 -0.0000
vn -0.1648 -0.9863 -0.0001
vn 0.3375 -0.4899 0.8038
vn 0.4767 -0.4139 0.7755
vn 0.4715 -0.7138 0.5179
vn 0.4802 -0.7365 0.4764
vn 0.2441 -0.0451 0.9687
vn -0.0893 -0.7261 0.6818
vn -0.1959 -0.7156 0.6705
vn -0.0873 -0.7225 0.6858
vn -0.2472 -0.2820 0.9270
vn 0.9172 -0.1315 0.3762
vn 0.2565 0.3479 0.9018
vn 0.9731 -0.1405 0.1825
vn -0.7062 0.1427 0.6935
vn -0.1921 -0.3256 0.9258
vt 0.686038 0.583480
vt 0.756743 0.557686
vt 0.745130 0.600636
vt 0.688189 0.606303
vt 0.759101 0.490010
vt 0.681398 0.551165
vt 0.668036 0.500505
vt 0.749583 0.418921
vt 0.651306 0.451592
vt 0.731422 0.357041
vt 0.623252 0.410396
vt 0.697843 0.291275
vt 0.645523 0.242057
vt 0.595495 0.313878
vt 0.587023 0.374376
vt 0.573054 0.291171
vt 0.559732 0.323712
vt 0.543589 0.281359
vt 0.605290 0.209495
vt 0.538977 0.318410
vt 0.542726 0.351946
vt 0.513290 0.276700
vt 0.554071 0.188906
vt 0.519458 0.317565
vt 0.525791 0.351260
vt 0.535141 0.351002
vt 0.514567 0.352725
vt 0.499953 0.319935
vt 0.503326 0.354287
vt 0.479348 0.325069
vt 0.479306 0.277641
vt 0.444384 0.287027
vt 0.435794 0.180322
vt 0.487548 0.355425
vt 0.449773 0.339081
vt 0.405311 0.307868
vt 0.366636 0.194906
vt 0.496929 0.177107
vt 0.448092 0.354268
vt 0.420956 0.353268
vt 0.368898 0.342678
vt 0.301968 0.240725
vt 0.357795 0.369463
vt 0.263595 0.290487
vt 0.231210 0.346439
vt 0.310201 0.410250
vt 0.446614 0.361133
vt 0.488811 0.360909
vt 0.375790 0.378482
vt 0.338004 0.410796
vt 0.677464 0.581857
vt 0.673183 0.551450
vt 0.659966 0.503815
vt 0.642666 0.454527
vt 0.618142 0.414874
vt 0.583075 0.379890
vt 0.534769 0.354379
vt 0.526251 0.355715
vt 0.504492 0.359673
vt 0.307931 0.462812
vt 0.288879 0.464432
vt 0.214277 0.398000
vt 0.291461 0.547914
vt 0.271313 0.549284
vt 0.202073 0.463081
vt 0.289212 0.616351
vt 0.269500 0.621418
vt 0.192126 0.556942
vt 0.297970 0.678379
vt 0.279852 0.685392
vt 0.201507 0.637888
vt 0.313123 0.730011
vt 0.303763 0.756598
vt 0.268895 0.780750
vt 0.297934 0.739239
vt 0.678423 0.605260
vt 0.677934 0.600016
vt 0.388834 0.699275
vt 0.378459 0.658365
vt 0.368969 0.603700
vt 0.369771 0.540404
vt 0.382319 0.464363
vt 0.402617 0.419973
vt 0.421116 0.362854
vt 0.422825 0.396233
vt 0.438823 0.385773
vt 0.490487 0.382956
vt 0.502119 0.381064
vt 0.519114 0.377192
vt 0.515652 0.357778
vt 0.553527 0.389324
vt 0.531256 0.420456
vt 0.525212 0.400735
vt 0.465157 0.670816
vt 0.459858 0.402596
vt 0.493042 0.423071
vt 0.493658 0.403693
vt 0.494067 0.455883
vt 0.448913 0.422942
vt 0.503586 0.520235
vt 0.435958 0.462902
vt 0.512954 0.567573
vt 0.434868 0.532615
vt 0.454850 0.636106
vt 0.443005 0.587303
vt 0.543188 0.453540
vt 0.525401 0.611015
vt 0.583481 0.450513
vt 0.563685 0.513295
vt 0.567793 0.417918
vt 0.542428 0.354970
vt 0.532044 0.373924
vt 0.544470 0.369520
vt 0.098182 0.196765
vt 0.892118 0.690219
vt 0.734774 0.622553
vt 0.825253 0.167571
vt 0.030644 0.348202
vt 0.044011 0.777907
vt 0.016865 0.678714
vt 0.926493 0.371903
vt 0.053665 0.278903
vt 0.933110 0.591378
vt 0.911644 0.658935
vt 0.000097 0.569430
vt 0.894672 0.276246
vt 0.152122 0.122864
vt 0.248867 0.044002
vt 0.362286 0.011049
vt 0.012483 0.436105
vt 0.941059 0.483041
vt 0.464903 0.000097
vt 0.223693 0.710131
vt 0.093104 0.891636
vt 0.730578 0.093164
vt 0.565487 0.014232
vt 0.656421 0.043714
vt 0.537909 0.653804
vt 0.535166 0.639424
vt 0.592761 0.623115
vt 0.586033 0.593901
vt 0.576009 0.556102
vt 0.627725 0.585082
vt 0.618939 0.550667
vt 0.607035 0.508825
vt 0.635859 0.607522
vt 0.561880 0.363560
vt 0.550400 0.357504
vt 0.551564 0.353798
vt 0.565715 0.359964
vt 0.579661 0.339483
vt 0.779062 0.874371
vt 0.687204 0.695381
vt 0.639933 0.616591
vt 0.595659 0.634109
vt 0.600885 0.761450
vt 0.466095 0.684801
vt 0.433808 0.809221
vt 0.388419 0.714535
vt 0.317788 0.745832
vt 0.542792 0.999903
vt 0.294139 0.999903
s 1
f 2/1/1 3/2/2 1/3/3
f 1/3/3 6/4/4 2/1/1
f 7/5/5 4/6/6 8/7/7
f 8/7/7 9/8/8 7/5/5
f 10/9/9 11/10/10 9/8/8
f 12/11/11 13/12/12 11/10/10
f 15/13/13 13/12/12 16/14/14
f 14/15/15 16/14/14 13/12/12
f 18/16/16 15/13/13 16/14/14
f 18/16/16 16/14/14 19/17/17
f 22/18/18 17/19/19 18/16/16
f 23/20/20 18/16/16 19/17/17
f 20/21/21 23/20/20 19/17/17
f 26/22/22 21/23/23 22/18/18
f 27/24/24 22/18/18 23/20/20
f 28/25/25 23/20/20 24/26/26
f 32/27/27 27/24/24 28/25/25
f 31/28/28 26/22/22 27/24/24
f 36/29/29 31/28/28 32/27/27
f 35/30/30 30/31/31 31/28/28
f 34/32/32 29/33/33 30/31/31
f 40/34/34 35/30/30 36/29/29
f 39/35/35 34/32/32 35/30/30
f 38/36/36 33/37/37 34/32/32
f 30/31/31 25/38/38 26/22/22
f 39/35/35 40/34/34 44/39/39
f 44/39/39 43/40/40 39/35/35
f 43/40/40 38/36/36 39/35/35
f 42/41/41 37/42/42 38/36/36
f 43/40/40 45/43/43 42/41/41
f 41/44/44 45/43/43 46/45/45
f 48/46/46 46/45/45 45/43/43
f 52/47/47 40/34/34 53/48/48
f 52/47/47 43/40/40 44/39/39
f 43/40/40 50/49/49 45/43/43
f 49/50/50 45/43/43 50/49/49
f 64/51/51 4/6/6 2/1/1
f 8/7/7 63/52/52 62/53/53
f 61/54/54 8/7/7 62/53/53
f 12/11/11 61/54/54 60/55/55
f 59/56/56 12/11/11 60/55/55
f 20/21/57 57/57/58 24/26/59
f 57/57/58 28/25/60 24/26/59
f 56/58/61 32/27/62 28/25/60
f 32/27/62 54/59/63 36/29/64
f 36/29/64 53/48/48 40/34/34
f 67/60/65 48/46/46 49/50/50
f 66/61/66 47/62/67 48/46/46
f 70/63/68 66/61/66 67/60/65
f 69/64/69 65/65/70 66/61/66
f 73/66/71 69/64/69 70/63/68
f 72/67/72 68/68/73 69/64/69
f 76/69/74 72/67/72 73/66/71
f 75/70/75 71/71/76 72/67/72
f 162/72/77 75/70/75 76/69/74
f 78/73/78 77/74/79 156/75/80
f 6/4/4 80/76/81 155/77/82
f 159/78/83 76/69/74 82/79/84
f 82/79/84 73/66/71 83/80/85
f 83/80/85 70/63/68 84/81/86
f 84/81/86 67/60/65 85/82/87
f 85/82/87 49/50/50 86/83/88
f 50/49/49 86/83/88 49/50/50
f 51/84/89 87/85/90 50/49/49
f 52/47/47 88/86/91 51/84/89
f 89/87/92 52/47/47 53/48/48
f 90/88/93 53/48/48 54/59/94
f 91/89/95 54/59/94 55/90/96
f 56/58/97 91/89/95 55/90/96
f 93/91/98 109/92/99 110/93/100
f 82/79/84 157/94/101 159/78/83
f 106/95/102 87/85/90 88/86/91
f 88/86/91 89/87/92 106/95/102
f 100/96/103 106/95/102 101/97/104
f 99/98/105 105/99/106 100/96/103
f 98/100/107 104/101/108 99/98/105
f 96/102/109 103/103/110 98/100/107
f 83/80/85 95/104/111 82/79/84
f 84/81/86 102/105/112 83/80/85
f 85/82/87 103/103/110 84/81/86
f 86/83/88 104/101/108 85/82/87
f 87/85/90 105/99/106 86/83/88
f 89/87/92 90/88/93 101/97/104
f 106/95/102 89/87/92 101/97/104
f 90/88/93 110/93/100 101/97/104
f 110/93/100 100/96/103 101/97/104
f 109/92/99 99/98/105 100/96/103
f 108/106/113 98/100/107 99/98/105
f 97/107/114 102/105/112 96/102/109
f 112/108/115 107/109/116 108/106/113
f 113/110/117 108/106/113 109/92/99
f 58/111/118 92/112/119 57/57/120
f 91/89/95 92/112/119 110/93/100
f 58/111/118 114/113/121 92/112/119
f 46/45/45 129/114/122 41/44/44
f 1/3/3 117/115/123 5/116/124
f 15/13/13 121/117/125 13/12/12
f 65/65/70 131/118/126 47/62/67
f 71/71/76 135/119/127 134/120/128
f 11/10/10 119/121/129 9/8/8
f 47/62/67 130/122/130 46/45/45
f 7/5/5 116/123/131 3/2/2
f 3/2/2 115/124/132 1/3/3
f 71/71/76 133/125/133 68/68/73
f 13/12/12 120/126/134 11/10/10
f 41/44/44 128/127/135 37/42/42
f 37/42/42 127/128/136 33/37/37
f 33/37/37 126/129/137 29/33/33
f 68/68/73 132/130/138 65/65/70
f 9/8/8 118/131/139 7/5/5
f 29/33/33 125/132/140 25/38/38
f 74/133/141 136/134/142 135/119/127
f 17/19/19 122/135/143 15/13/13
f 25/38/38 124/136/144 21/23/23
f 21/23/23 123/137/145 17/19/19
f 137/138/146 157/94/101 160/139/147
f 158/140/148 97/107/114 139/141/149
f 140/142/150 97/107/114 96/102/109
f 96/102/109 107/109/116 140/142/150
f 142/143/151 158/140/148 139/141/149
f 143/144/152 139/141/149 140/142/150
f 111/145/153 140/142/150 107/109/116
f 64/51/154 161/146/155 142/143/151
f 63/52/156 142/143/151 143/144/152
f 143/144/152 62/53/157 63/52/156
f 61/54/158 111/145/153 112/108/115
f 60/55/159 112/108/115 113/110/117
f 57/57/120 92/112/119 56/58/97
f 93/91/98 92/112/119 114/113/121
f 59/56/160 113/110/117 93/91/98
f 144/147/161 93/91/98 114/113/121
f 58/111/118 145/148/162 114/113/121
f 146/149/163 58/111/164 20/21/57
f 147/150/165 59/56/56 144/147/166
f 144/147/166 146/149/163 147/150/165
f 16/14/14 14/15/15 148/151/167
f 16/14/14 148/151/167 19/17/17
f 20/21/21 19/17/17 146/149/168
f 148/151/167 14/15/15 147/150/165
f 148/151/167 146/149/168 19/17/17
f 114/113/121 145/148/162 144/147/161
f 117/115/169 153/152/169 149/153/169
f 6/4/170 149/153/169 80/76/170
f 80/76/170 149/153/169 141/154/169
f 149/153/169 6/4/170 5/116/169
f 141/154/169 149/153/169 138/155/169
f 138/155/169 150/156/169 137/138/169
f 137/138/169 150/156/169 94/157/169
f 94/157/169 151/158/169 81/159/169
f 81/159/169 151/158/169 79/160/171
f 79/160/171 151/158/169 78/73/169
f 94/157/169 150/156/169 151/158/169
f 138/155/169 149/153/169 150/156/169
f 149/153/169 5/116/169 117/115/169
f 150/156/169 152/161/169 151/158/169
f 151/158/169 152/161/169 154/162/169
f 149/153/169 153/152/169 150/156/169
f 150/156/169 153/152/169 152/161/169
f 154/162/169 136/134/169 77/74/169
f 77/74/169 151/158/169 154/162/169
f 78/73/169 151/158/169 77/74/169
f 155/77/82 2/1/1 6/4/4
f 159/78/83 94/157/172 81/159/173
f 162/72/174 81/159/173 79/160/175
f 160/139/176 95/104/111 97/107/114
f 156/75/80 79/160/175 78/73/78
f 158/140/177 141/154/178 138/155/179
f 155/77/180 141/154/178 161/146/155
f 160/139/147 138/155/179 137/138/146
f 156/75/181 74/133/141 75/70/75
f 2/1/1 4/6/6 3/2/2
f 1/3/3 5/116/124 6/4/4
f 7/5/5 3/2/2 4/6/6
f 8/7/7 10/9/9 9/8/8
f 10/9/9 12/11/11 11/10/10
f 12/11/11 14/15/15 13/12/12
f 18/16/16 17/19/19 15/13/13
f 22/18/18 21/23/23 17/19/19
f 23/20/20 22/18/18 18/16/16
f 20/21/21 24/26/26 23/20/20
f 26/22/22 25/38/38 21/23/23
f 27/24/24 26/22/22 22/18/18
f 28/25/25 27/24/24 23/20/20
f 32/27/27 31/28/28 27/24/24
f 31/28/28 30/31/31 26/22/22
f 36/29/29 35/30/30 31/28/28
f 35/30/30 34/32/32 30/31/31
f 34/32/32 33/37/37 29/33/33
f 40/34/34 39/35/35 35/30/30
f 39/35/35 38/36/36 34/32/32
f 38/36/36 37/42/42 33/37/37
f 30/31/31 29/33/33 25/38/38
f 43/40/40 42/41/41 38/36/36
f 42/41/41 41/44/44 37/42/42
f 41/44/44 42/41/41 45/43/43
f 48/46/46 47/62/67 46/45/45
f 52/47/47 44/39/39 40/34/34
f 52/47/47 51/84/89 43/40/40
f 43/40/40 51/84/89 50/49/49
f 49/50/50 48/46/46 45/43/43
f 64/51/51 63/52/52 4/6/6
f 8/7/7 4/6/6 63/52/52
f 61/54/54 10/9/9 8/7/7
f 12/11/11 10/9/9 61/54/54
f 59/56/56 14/15/15 12/11/11
f 20/21/57 58/111/164 57/57/58
f 57/57/58 56/58/61 28/25/60
f 56/58/61 55/90/182 32/27/62
f 32/27/62 55/90/182 54/59/63
f 36/29/64 54/59/63 53/48/48
f 67/60/65 66/61/66 48/46/46
f 66/61/66 65/65/70 47/62/67
f 70/63/68 69/64/69 66/61/66
f 69/64/69 68/68/73 65/65/70
f 73/66/71 72/67/72 69/64/69
f 72/67/72 71/71/76 68/68/73
f 76/69/74 75/70/75 72/67/72
f 75/70/75 74/133/141 71/71/76
f 162/72/77 156/75/181 75/70/75
f 159/78/83 162/72/77 76/69/74
f 82/79/84 76/69/74 73/66/71
f 83/80/85 73/66/71 70/63/68
f 84/81/86 70/63/68 67/60/65
f 85/82/87 67/60/65 49/50/50
f 50/49/49 87/85/90 86/83/88
f 51/84/89 88/86/91 87/85/90
f 89/87/92 88/86/91 52/47/47
f 90/88/93 89/87/92 53/48/48
f 91/89/95 90/88/93 54/59/94
f 56/58/97 92/112/119 91/89/95
f 93/91/98 113/110/117 109/92/99
f 82/79/84 95/104/111 157/94/101
f 100/96/103 105/99/106 106/95/102
f 99/98/105 104/101/108 105/99/106
f 98/100/107 103/103/110 104/101/108
f 96/102/109 102/105/112 103/103/110
f 83/80/85 102/105/112 95/104/111
f 84/81/86 103/103/110 102/105/112
f 85/82/87 104/101/108 103/103/110
f 86/83/88 105/99/106 104/101/108
f 87/85/90 106/95/102 105/99/106
f 90/88/93 91/89/95 110/93/100
f 110/93/100 109/92/99 100/96/103
f 109/92/99 108/106/113 99/98/105
f 108/106/113 107/109/116 98/100/107
f 97/107/114 95/104/111 102/105/112
f 112/108/115 111/145/153 107/109/116
f 113/110/117 112/108/115 108/106/113
f 46/45/45 130/122/130 129/114/122
f 1/3/3 115/124/132 117/115/123
f 15/13/13 122/135/143 121/117/125
f 65/65/70 132/130/138 131/118/126
f 71/71/76 74/133/141 135/119/127
f 11/10/10 120/126/134 119/121/129
f 47/62/67 131/118/126 130/122/130
f 7/5/5 118/131/139 116/123/131
f 3/2/2 116/123/131 115/124/132
f 71/71/76 134/120/128 133/125/133
f 13/12/12 121/117/125 120/126/134
f 41/44/44 129/114/122 128/127/135
f 37/42/42 128/127/135 127/128/136
f 33/37/37 127/128/136 126/129/137
f 68/68/73 133/125/133 132/130/138
f 9/8/8 119/121/129 118/131/139
f 29/33/33 126/129/137 125/132/140
f 74/133/141 77/74/183 136/134/142
f 17/19/19 123/137/145 122/135/143
f 25/38/38 125/132/140 124/136/144
f 21/23/23 124/136/144 123/137/145
f 137/138/146 94/157/172 157/94/101
f 158/140/148 160/139/176 97/107/114
f 140/142/150 139/141/149 97/107/114
f 96/102/109 98/100/107 107/109/116
f 142/143/151 161/146/155 158/140/148
f 143/144/152 142/143/151 139/141/149
f 111/145/153 143/144/152 140/142/150
f 64/51/154 155/77/180 161/146/155
f 63/52/156 64/51/154 142/143/151
f 143/144/152 111/145/153 62/53/157
f 61/54/158 62/53/157 111/145/153
f 60/55/159 61/54/158 112/108/115
f 93/91/98 110/93/100 92/112/119
f 59/56/160 60/55/159 113/110/117
f 144/147/161 59/56/160 93/91/98
f 146/149/163 145/148/184 58/111/164
f 147/150/165 14/15/15 59/56/56
f 144/147/166 145/148/184 146/149/163
f 148/151/167 147/150/165 146/149/168
f 155/77/82 64/51/51 2/1/1
f 159/78/83 157/94/101 94/157/172
f 162/72/174 159/78/83 81/159/173
f 160/139/176 157/94/101 95/104/111
f 156/75/80 162/72/174 79/160/175
f 158/140/177 161/146/155 141/154/178
f 155/77/180 80/76/185 141/154/178
f 160/139/147 158/140/177 138/155/179
f 156/75/181 77/74/183 74/133/141
