# Blender 4.2.1 LTS
# www.blender.org
o Dpad_Down
v -0.285910 -0.282584 -0.125602
v -0.302637 -0.283054 -0.131878
v -0.308539 -0.284407 -0.115901
v -0.291349 -0.284900 -0.098776
v -0.301725 -0.282653 -0.151404
v -0.285327 -0.281888 -0.149605
v -0.310892 -0.281404 -0.136098
v -0.309511 -0.281107 -0.152662
v -0.316156 -0.282457 -0.123425
v -0.301671 -0.283913 -0.187186
v -0.301674 -0.282982 -0.169594
v -0.285325 -0.282147 -0.169403
v -0.285325 -0.283050 -0.187225
v -0.309303 -0.281431 -0.169693
v -0.309294 -0.282392 -0.187106
v -0.231767 -0.282702 -0.151394
v -0.230871 -0.283110 -0.131853
v -0.222634 -0.281468 -0.136058
v -0.223987 -0.281166 -0.152648
v -0.247582 -0.282616 -0.125593
v -0.248160 -0.281917 -0.149601
v -0.224978 -0.284464 -0.115865
v -0.242143 -0.284936 -0.098767
v -0.217387 -0.282521 -0.123362
v -0.266742 -0.287403 -0.074001
v -0.266743 -0.284483 -0.096827
v -0.266743 -0.282343 -0.123351
v -0.266743 -0.281555 -0.148860
v -0.266743 -0.282694 -0.187239
v -0.266743 -0.281793 -0.169324
v -0.248160 -0.282177 -0.169401
v -0.248160 -0.283070 -0.187223
v -0.231813 -0.283958 -0.187183
v -0.231812 -0.283034 -0.169590
v -0.224182 -0.281494 -0.169689
v -0.224190 -0.282448 -0.187103
v -0.301539 -0.284044 -0.211306
v -0.301613 -0.285287 -0.203432
v -0.285321 -0.284468 -0.203530
v -0.285299 -0.283282 -0.211642
v -0.309004 -0.283728 -0.203310
v -0.308084 -0.284367 -0.210304
v -0.266742 -0.282916 -0.211664
v -0.266743 -0.284111 -0.203549
v -0.248164 -0.284486 -0.203528
v -0.248186 -0.283301 -0.211640
v -0.231946 -0.284091 -0.211303
v -0.231872 -0.285333 -0.203429
v -0.224480 -0.283787 -0.203306
v -0.225399 -0.284421 -0.210300
v -0.209797 -0.231543 -0.134491
v -0.209797 -0.268834 -0.132013
v -0.213428 -0.230816 -0.144619
v -0.213428 -0.268107 -0.142142
v -0.213913 -0.230725 -0.158037
v -0.213913 -0.268012 -0.155560
v -0.213913 -0.231050 -0.173479
v -0.213913 -0.268339 -0.171001
v -0.213913 -0.232062 -0.190603
v -0.213913 -0.269353 -0.188126
v -0.214547 -0.233488 -0.207767
v -0.214547 -0.270779 -0.205289
v -0.219226 -0.234325 -0.219976
v -0.219226 -0.271615 -0.217499
v -0.230999 -0.234087 -0.224875
v -0.230999 -0.271378 -0.222398
v -0.248231 -0.233277 -0.225587
v -0.248231 -0.270567 -0.223110
v -0.266742 -0.232875 -0.225614
v -0.266742 -0.270165 -0.223137
v -0.285254 -0.233257 -0.225589
v -0.285254 -0.270546 -0.223111
v -0.302486 -0.234040 -0.224879
v -0.302486 -0.271331 -0.222401
v -0.314259 -0.234269 -0.219980
v -0.314259 -0.271559 -0.217502
v -0.318938 -0.233413 -0.207772
v -0.318938 -0.270704 -0.205294
v -0.319572 -0.231991 -0.190608
v -0.319572 -0.269282 -0.188131
v -0.319574 -0.230978 -0.173484
v -0.319574 -0.268270 -0.171006
v -0.319587 -0.230657 -0.158052
v -0.319587 -0.267948 -0.155574
v -0.320102 -0.230746 -0.144662
v -0.320102 -0.268037 -0.142185
v -0.323750 -0.231469 -0.134559
v -0.323750 -0.268761 -0.132082
v -0.318556 -0.276412 -0.140303
v -0.317854 -0.276285 -0.154216
v -0.322499 -0.277193 -0.129786
v -0.317796 -0.276606 -0.169920
v -0.317793 -0.277610 -0.187094
v -0.215646 -0.276355 -0.154201
v -0.214974 -0.276483 -0.140260
v -0.211049 -0.277264 -0.129718
v -0.215692 -0.277679 -0.187090
v -0.215690 -0.276678 -0.169915
v -0.302300 -0.279591 -0.219639
v -0.285262 -0.278815 -0.220287
v -0.317215 -0.279014 -0.204070
v -0.313011 -0.279800 -0.215237
v -0.266742 -0.278436 -0.220312
v -0.248223 -0.278835 -0.220285
v -0.231185 -0.279638 -0.219636
v -0.220473 -0.279856 -0.215233
v -0.216269 -0.279086 -0.204066
vn -0.0008 -0.9995 0.0313
vn 0.0315 -0.9995 -0.0068
vn 0.0341 -0.9989 0.0324
vn -0.0136 -0.9956 -0.0930
vn 0.0318 -0.9980 -0.0544
vn 0.0318 -0.9954 -0.0906
vn -0.0709 -0.9975 -0.0050
vn -0.0743 -0.9966 0.0352
vn -0.0006 -0.9977 0.0684
vn -0.0355 -0.9988 0.0322
vn -0.3513 -0.9362 -0.0124
vn -0.7739 -0.6048 -0.1880
vn -0.8092 -0.5873 -0.0175
vn -0.0418 -0.9970 -0.0648
vn -0.3106 -0.9431 -0.1191
vn -0.2524 -0.9504 -0.1820
vn 0.8169 -0.5687 -0.0961
vn 0.9945 -0.1045 -0.0107
vn 0.8087 -0.5875 0.0274
vn -0.3490 -0.9352 0.0593
vn -0.0724 -0.9951 0.0675
vn 0.0354 -0.9970 0.0686
vn 0.8091 -0.5874 -0.0162
vn 0.3507 -0.9359 0.0340
vn 0.8095 -0.5867 0.0231
vn 0.0730 -0.9967 0.0351
vn 0.3505 -0.9365 -0.0119
vn 0.0698 -0.9976 -0.0050
vn -0.8098 -0.5863 0.0217
vn -0.9944 -0.1040 -0.0187
vn -0.9947 -0.1032 0.0037
vn -0.0333 -0.9980 -0.0543
vn -0.0008 -1.0000 -0.0095
vn -0.0329 -0.9994 -0.0069
vn 0.0409 -0.9971 -0.0647
vn -0.3613 -0.9308 0.0549
vn -0.0500 -0.9987 -0.0076
vn 0.3600 -0.9314 0.0548
vn 0.0710 -0.9952 0.0673
vn 0.0484 -0.9988 -0.0076
vn -0.8086 -0.5878 0.0273
vn -0.3517 -0.9355 0.0339
vn 0.6715 -0.6699 -0.3168
vn 0.3104 -0.9432 -0.1186
vn 0.7711 -0.6079 -0.1897
vn -0.0069 -0.6489 -0.7608
vn -0.0005 -0.9515 -0.3076
vn -0.0003 -0.6495 -0.7603
vn -0.0007 -0.9945 -0.1051
vn -0.0008 -0.9983 -0.0575
vn 0.0128 -0.9956 -0.0928
vn 0.2721 -0.9331 -0.2352
vn 0.6182 -0.5656 -0.5458
vn 0.2524 -0.9505 -0.1815
vn -0.0005 -0.9996 -0.0297
vn 0.0266 -0.9508 -0.3086
vn 0.1342 -0.6143 -0.7776
vn -0.0278 -0.9508 -0.3085
vn 0.7061 -0.1671 -0.6882
vn -0.0367 -0.9970 0.0683
vn -0.0199 -0.9461 -0.3234
vn -0.0350 -0.9989 -0.0302
vn 0.3478 -0.9357 0.0593
vn 0.9947 -0.1030 0.0042
vn 0.9269 -0.1433 -0.3469
vn -0.1353 -0.6222 -0.7711
vn 0.0055 -0.6487 -0.7610
vn -0.2730 -0.9329 -0.2349
vn 0.0186 -0.9461 -0.3234
vn -0.5964 -0.5660 -0.5692
vn -0.8130 -0.5737 -0.0999
vn 0.0337 -0.9990 -0.0302
vn 0.0143 -0.1951 -0.9807
vn -0.0001 -0.1947 -0.9809
vn 0.9945 -0.1037 -0.0172
vn 0.9817 -0.0126 -0.1899
vn 0.9751 -0.1168 -0.1887
vn 0.9241 -0.0229 -0.3815
vn 0.9998 -0.0012 -0.0179
vn 1.0000 -0.0000 -0.0000
vn 0.9998 -0.0012 -0.0183
vn 0.2041 -0.1905 -0.9602
vn 0.7165 -0.0462 -0.6960
vn 0.2135 -0.0648 -0.9748
vn 0.0186 -0.0663 -0.9976
vn -0.0145 -0.1951 -0.9807
vn -0.2135 -0.0648 -0.9748
vn -0.0186 -0.0663 -0.9976
vn -0.7166 -0.0462 -0.6960
vn -0.2043 -0.1905 -0.9602
vn -0.7062 -0.1671 -0.6881
vn -0.9744 -0.1183 -0.1910
vn -0.9799 -0.0132 -0.1991
vn -0.9945 -0.1045 -0.0108
vn -1.0000 -0.0000 -0.0005
vn -0.9998 -0.0013 -0.0197
vn -0.9813 -0.0128 -0.1921
vn -0.9234 -0.0230 -0.3832
vn -0.9746 -0.1171 -0.1909
vn -0.9261 -0.1435 -0.3490
vn -0.6749 -0.6614 -0.3273
vn 0.9744 -0.1183 -0.1911
vn 0.9799 -0.0132 -0.1992
vn -0.0000 -0.0663 -0.9978
vn -0.0007 -0.9919 -0.1269
vn -0.0330 -0.9954 -0.0900
vn -0.9998 -0.0012 -0.0184
vt 0.513653 0.519566
vt 0.667966 0.511518
vt 0.578274 0.443044
vt 0.938051 0.526969
vt 0.788378 0.605120
vt 0.951392 0.697866
vt 0.717951 0.423098
vt 0.627306 0.368522
vt 0.447109 0.456632
vt 0.440854 0.588336
vt 0.736974 0.376724
vt 0.843193 0.356271
vt 0.756271 0.318131
vt 0.825835 0.490723
vt 0.835324 0.427025
vt 0.928257 0.451140
vt 0.226686 0.537096
vt 0.207800 0.616966
vt 0.248515 0.605747
vt 0.566295 0.292450
vt 0.548711 0.324385
vt 0.505510 0.389002
vt 0.326196 0.772873
vt 0.332555 0.663356
vt 0.283916 0.687742
vt 0.369202 0.641415
vt 0.383547 0.750404
vt 0.428732 0.728870
vt 0.668870 0.280692
vt 0.768981 0.264734
vt 0.681296 0.233601
vt 0.614314 0.789146
vt 0.597762 0.599136
vt 0.514189 0.674082
vt 0.502320 0.832863
vt 0.503290 0.265092
vt 0.487905 0.289915
vt 0.259078 0.523435
vt 0.320772 0.565446
vt 0.282977 0.506698
vt 0.584955 0.249914
vt 0.647194 0.330681
vt 0.396520 0.932215
vt 0.439423 0.845836
vt 0.369286 0.857591
vt 0.277795 0.408146
vt 0.363668 0.377741
vt 0.331633 0.347446
vt 0.844697 0.832835
vt 0.713781 0.708926
vt 0.544771 0.942909
vt 0.249420 0.500717
vt 0.223084 0.496767
vt 0.468799 0.937330
vt 0.390656 0.403257
vt 0.419325 0.318939
vt 0.238106 0.461188
vt 0.308093 0.436611
vt 0.194987 0.488818
vt 0.382856 0.518713
vt 0.264057 0.483156
vt 0.332607 0.461775
vt 0.289890 0.584770
vt 0.237619 0.702775
vt 0.336701 0.938034
vt 0.439931 0.247625
vt 0.389206 0.290269
vt 0.480045 0.256721
vt 0.463325 0.272330
vt 0.474631 0.230624
vt 0.515134 0.231931
vt 0.445829 0.342011
vt 0.248906 0.383883
vt 0.302625 0.320002
vt 0.273604 0.788567
vt 0.065296 0.932793
vt 0.309241 0.869927
vt 0.091959 0.999902
vt 0.037544 0.846904
vt 0.012641 0.746826
vt 0.000098 0.634937
vt 0.210697 0.443562
vt 0.011541 0.445155
vt 0.035296 0.369744
vt 0.085622 0.273293
vt 0.363381 0.262763
vt 0.337361 0.050139
vt 0.243941 0.105837
vt 0.411323 0.022187
vt 0.420807 0.221220
vt 0.465134 0.202989
vt 0.516095 0.197448
vt 0.490852 0.006181
vt 0.593892 0.208598
vt 0.712684 0.006370
vt 0.813956 0.025630
vt 0.901112 0.048435
vt 0.969520 0.071215
vt 0.852120 0.295609
vt 0.921581 0.319102
vt 0.919145 0.379171
vt 0.192352 0.539973
vt 0.000098 0.525421
vt 0.158532 0.183642
vt 0.961205 0.943126
vt 0.715876 0.946815
vt 0.600238 0.000099
s 1
f 30/1/1 6/2/2 12/3/3
f 3/4/4 1/5/5 4/6/6
f 12/3/3 5/7/7 11/8/8
f 29/9/9 31/10/10 30/1/1
f 8/11/11 89/12/12 90/13/13
f 6/2/2 2/14/14 5/7/7
f 5/7/7 7/15/15 8/11/11
f 9/16/16 2/14/14 3/4/4
f 107/17/17 60/18/18 97/19/19
f 11/8/8 15/20/20 10/21/21
f 11/8/8 13/22/22 12/3/3
f 94/23/23 35/24/24 98/25/25
f 34/26/26 19/27/27 16/28/28
f 92/29/29 84/30/30 82/31/31
f 20/32/32 28/33/33 21/34/34
f 17/35/35 21/34/34 16/28/28
f 10/21/21 41/36/36 38/37/37
f 49/38/38 33/39/39 48/40/40
f 93/41/41 14/42/42 92/29/29
f 96/43/43 18/44/44 95/45/45
f 18/44/44 16/28/28 19/27/27
f 104/46/46 43/47/47 103/48/48
f 26/49/49 1/5/5 27/50/50
f 22/51/51 20/32/32 17/35/35
f 107/17/17 50/52/52 106/53/53
f 17/35/35 24/54/54 22/51/51
f 44/55/55 40/56/56 43/47/47
f 105/57/57 46/58/58 104/46/46
f 105/57/57 64/59/59 106/53/53
f 20/32/32 26/49/49 27/50/50
f 13/22/22 44/55/55 29/9/9
f 12/3/3 29/9/9 30/1/1
f 1/5/5 28/33/33 27/50/50
f 19/27/27 95/45/45 18/44/44
f 50/52/52 105/57/57 106/53/53
f 34/26/26 32/60/60 33/39/39
f 38/37/37 13/22/22 10/21/21
f 32/60/60 48/40/40 33/39/39
f 47/61/61 45/62/62 46/58/58
f 36/63/63 34/26/26 33/39/39
f 16/28/28 31/10/10 34/26/26
f 48/40/40 50/52/52 49/38/38
f 35/24/24 97/19/19 98/25/25
f 58/64/64 97/19/19 60/18/18
f 95/45/45 52/65/65 96/43/43
f 40/56/56 99/66/66 100/67/67
f 38/37/37 42/68/68 37/69/69
f 99/66/66 42/68/68 102/70/70
f 42/68/68 101/71/71 102/70/70
f 37/69/69 39/72/72 38/37/37
f 101/71/71 15/20/20 93/41/41
f 44/55/55 32/60/60 29/9/9
f 46/58/58 44/55/55 43/47/47
f 68/73/73 103/48/48 70/74/74
f 107/17/17 36/63/63 49/38/38
f 56/75/75 53/76/76 54/77/77
f 98/25/25 56/75/75 94/23/23
f 51/78/78 54/77/77 53/76/76
f 54/77/77 94/23/23 56/75/75
f 55/79/79 58/64/64 57/80/80
f 57/80/80 60/18/18 59/81/81
f 66/82/82 63/83/83 64/59/59
f 65/84/84 68/73/73 67/85/85
f 70/74/74 67/85/85 68/73/73
f 72/86/86 73/87/87 71/88/88
f 103/48/48 72/86/86 70/74/74
f 75/89/89 74/90/90 76/91/91
f 75/89/89 78/92/92 77/93/93
f 100/67/67 74/90/90 72/86/86
f 80/94/94 77/93/93 78/92/92
f 102/70/70 78/92/92 76/91/91
f 81/95/95 80/94/94 82/31/31
f 83/96/96 82/31/31 84/30/30
f 84/30/30 85/97/97 83/96/96
f 93/41/41 82/31/31 80/94/94
f 87/98/98 86/99/99 88/100/100
f 89/12/12 88/100/100 86/99/99
f 86/99/99 90/13/13 89/12/12
f 101/71/71 80/94/94 78/92/92
f 30/1/1 21/34/34 28/33/33
f 11/8/8 8/11/11 14/42/42
f 7/15/15 91/101/101 89/12/12
f 62/102/102 63/83/83 61/103/103
f 99/66/66 76/91/91 74/90/90
f 106/53/53 62/102/102 107/17/17
f 70/74/74 71/88/88 69/104/104
f 14/42/42 90/13/13 92/29/29
f 43/47/47 100/67/67 103/48/48
f 61/103/103 60/18/18 62/102/102
f 104/46/46 66/82/82 105/57/57
f 25/105/105 4/6/6 26/49/49
f 23/106/106 25/105/105 26/49/49
f 30/1/1 28/33/33 6/2/2
f 3/4/4 2/14/14 1/5/5
f 12/3/3 6/2/2 5/7/7
f 29/9/9 32/60/60 31/10/10
f 8/11/11 7/15/15 89/12/12
f 6/2/2 1/5/5 2/14/14
f 5/7/7 2/14/14 7/15/15
f 9/16/16 7/15/15 2/14/14
f 107/17/17 62/102/102 60/18/18
f 11/8/8 14/42/42 15/20/20
f 11/8/8 10/21/21 13/22/22
f 94/23/23 19/27/27 35/24/24
f 34/26/26 35/24/24 19/27/27
f 92/29/29 90/13/13 84/30/30
f 20/32/32 27/50/50 28/33/33
f 17/35/35 20/32/32 21/34/34
f 10/21/21 15/20/20 41/36/36
f 49/38/38 36/63/63 33/39/39
f 93/41/41 15/20/20 14/42/42
f 96/43/43 24/54/54 18/44/44
f 18/44/44 17/35/35 16/28/28
f 104/46/46 46/58/58 43/47/47
f 26/49/49 4/6/6 1/5/5
f 22/51/51 23/106/106 20/32/32
f 107/17/17 49/38/38 50/52/52
f 17/35/35 18/44/44 24/54/54
f 44/55/55 39/72/72 40/56/56
f 105/57/57 47/61/61 46/58/58
f 105/57/57 66/82/82 64/59/59
f 20/32/32 23/106/106 26/49/49
f 13/22/22 39/72/72 44/55/55
f 12/3/3 13/22/22 29/9/9
f 1/5/5 6/2/2 28/33/33
f 19/27/27 94/23/23 95/45/45
f 50/52/52 47/61/61 105/57/57
f 34/26/26 31/10/10 32/60/60
f 38/37/37 39/72/72 13/22/22
f 32/60/60 45/62/62 48/40/40
f 47/61/61 48/40/40 45/62/62
f 36/63/63 35/24/24 34/26/26
f 16/28/28 21/34/34 31/10/10
f 48/40/40 47/61/61 50/52/52
f 35/24/24 36/63/63 97/19/19
f 58/64/64 98/25/25 97/19/19
f 95/45/45 54/77/77 52/65/65
f 40/56/56 37/69/69 99/66/66
f 38/37/37 41/36/36 42/68/68
f 99/66/66 37/69/69 42/68/68
f 42/68/68 41/36/36 101/71/71
f 37/69/69 40/56/56 39/72/72
f 101/71/71 41/36/36 15/20/20
f 44/55/55 45/62/62 32/60/60
f 46/58/58 45/62/62 44/55/55
f 68/73/73 104/46/46 103/48/48
f 107/17/17 97/19/19 36/63/63
f 56/75/75 55/79/79 53/76/76
f 98/25/25 58/64/64 56/75/75
f 51/78/78 52/65/65 54/77/77
f 54/77/77 95/45/45 94/23/23
f 55/79/79 56/75/75 58/64/64
f 57/80/80 58/64/64 60/18/18
f 66/82/82 65/84/84 63/83/83
f 65/84/84 66/82/82 68/73/73
f 70/74/74 69/104/104 67/85/85
f 72/86/86 74/90/90 73/87/87
f 103/48/48 100/67/67 72/86/86
f 75/89/89 73/87/87 74/90/90
f 75/89/89 76/91/91 78/92/92
f 100/67/67 99/66/66 74/90/90
f 80/94/94 79/107/107 77/93/93
f 102/70/70 101/71/71 78/92/92
f 81/95/95 79/107/107 80/94/94
f 83/96/96 81/95/95 82/31/31
f 84/30/30 86/99/99 85/97/97
f 93/41/41 92/29/29 82/31/31
f 87/98/98 85/97/97 86/99/99
f 89/12/12 91/101/101 88/100/100
f 86/99/99 84/30/30 90/13/13
f 101/71/71 93/41/41 80/94/94
f 30/1/1 31/10/10 21/34/34
f 11/8/8 5/7/7 8/11/11
f 7/15/15 9/16/16 91/101/101
f 62/102/102 64/59/59 63/83/83
f 99/66/66 102/70/70 76/91/91
f 106/53/53 64/59/59 62/102/102
f 70/74/74 72/86/86 71/88/88
f 14/42/42 8/11/11 90/13/13
f 43/47/47 40/56/56 100/67/67
f 61/103/103 59/81/81 60/18/18
f 104/46/46 68/73/73 66/82/82
